<?xml version="1.0" encoding="utf-8"?>
<!-- Generator: Adobe Illustrator 21.0.0, SVG Export Plug-In . SVG Version: 6.00 Build 0)  -->
<svg version="1.1" id="_x2014_ÎÓÈ_x5F_1" xmlns="http://www.w3.org/2000/svg" xmlns:xlink="http://www.w3.org/1999/xlink"
	 x="0px" y="0px" viewBox="0 0 384.7 450" style="enable-background:new 0 0 384.7 450;" xml:space="preserve">
<style type="text/css">
	.st0{fill:#FEC3AC;}
	.st1{fill:#D8D8D8;}
	.st2{fill:#FFFFFF;}
	.st3{clip-path:url(#SVGID_2_);fill:#FFFFFF;}
	.st4{clip-path:url(#SVGID_2_);fill:#FEFFFF;}
	.st5{clip-path:url(#SVGID_2_);fill:#FEFEFF;}
	.st6{clip-path:url(#SVGID_2_);fill:#FEFEFE;}
	.st7{clip-path:url(#SVGID_2_);fill:#FDFEFE;}
	.st8{clip-path:url(#SVGID_2_);fill:#FDFDFE;}
	.st9{clip-path:url(#SVGID_2_);fill:#FCFDFE;}
	.st10{clip-path:url(#SVGID_2_);fill:#FBFCFE;}
	.st11{clip-path:url(#SVGID_2_);fill:#FBFCFD;}
	.st12{clip-path:url(#SVGID_2_);fill:#FAFBFD;}
	.st13{clip-path:url(#SVGID_2_);fill:#F9FBFD;}
	.st14{clip-path:url(#SVGID_2_);fill:#F9FAFC;}
	.st15{clip-path:url(#SVGID_2_);fill:#F8FAFC;}
	.st16{clip-path:url(#SVGID_2_);fill:#F7F9FC;}
	.st17{clip-path:url(#SVGID_2_);fill:#F6F9FB;}
	.st18{clip-path:url(#SVGID_2_);fill:#F6F8FB;}
	.st19{clip-path:url(#SVGID_2_);fill:#F5F8FB;}
	.st20{clip-path:url(#SVGID_2_);fill:#F5F7FB;}
	.st21{clip-path:url(#SVGID_2_);fill:#F4F7FB;}
	.st22{clip-path:url(#SVGID_2_);fill:#F4F7FA;}
	.st23{clip-path:url(#SVGID_2_);fill:#F3F6FA;}
	.st24{clip-path:url(#SVGID_2_);fill:#F2F6FA;}
	.st25{clip-path:url(#SVGID_2_);fill:#F2F5FA;}
	.st26{clip-path:url(#SVGID_2_);fill:#F1F5F9;}
	.st27{clip-path:url(#SVGID_2_);fill:#F1F4F9;}
	.st28{clip-path:url(#SVGID_2_);fill:#F0F4F9;}
	.st29{clip-path:url(#SVGID_2_);fill:#EFF4F9;}
	.st30{clip-path:url(#SVGID_2_);fill:#EFF3F8;}
	.st31{clip-path:url(#SVGID_2_);fill:#EEF3F8;}
	.st32{clip-path:url(#SVGID_2_);fill:#EEF2F8;}
	.st33{clip-path:url(#SVGID_2_);fill:#EDF2F8;}
	.st34{clip-path:url(#SVGID_2_);fill:#ECF1F7;}
	.st35{clip-path:url(#SVGID_2_);fill:#EBF0F7;}
	.st36{clip-path:url(#SVGID_2_);fill:#EAF0F6;}
	.st37{clip-path:url(#SVGID_2_);fill:#EAEFF6;}
	.st38{clip-path:url(#SVGID_2_);fill:#E9EFF6;}
	.st39{clip-path:url(#SVGID_2_);fill:#E8EEF6;}
	.st40{clip-path:url(#SVGID_2_);fill:#E7EEF5;}
	.st41{clip-path:url(#SVGID_2_);fill:#E7EDF5;}
	.st42{clip-path:url(#SVGID_2_);fill:#E6EDF5;}
	.st43{clip-path:url(#SVGID_2_);fill:#E5ECF4;}
	.st44{clip-path:url(#SVGID_2_);fill:#E4EBF4;}
	.st45{clip-path:url(#SVGID_2_);fill:#E3EBF4;}
	.st46{clip-path:url(#SVGID_2_);fill:#E2EAF3;}
	.st47{clip-path:url(#SVGID_2_);fill:#E1E9F3;}
	.st48{clip-path:url(#SVGID_2_);fill:#E0E8F2;}
	.st49{clip-path:url(#SVGID_2_);fill:#DFE8F2;}
	.st50{clip-path:url(#SVGID_2_);fill:#DFE7F2;}
	.st51{clip-path:url(#SVGID_2_);fill:#DEE7F1;}
	.st52{clip-path:url(#SVGID_2_);fill:#DDE6F1;}
	.st53{clip-path:url(#SVGID_2_);fill:#DCE6F1;}
	.st54{clip-path:url(#SVGID_2_);fill:#DCE5F0;}
	.st55{clip-path:url(#SVGID_2_);fill:#DBE4F0;}
	.st56{clip-path:url(#SVGID_2_);fill:#DAE4F0;}
	.st57{clip-path:url(#SVGID_2_);fill:#D9E3EF;}
	.st58{clip-path:url(#SVGID_2_);fill:#D8E3EF;}
	.st59{clip-path:url(#SVGID_2_);fill:#D7E2EF;}
	.st60{clip-path:url(#SVGID_2_);fill:#D7E1EE;}
	.st61{clip-path:url(#SVGID_2_);fill:#D6E1EE;}
	.st62{clip-path:url(#SVGID_2_);fill:#D5E0EE;}
	.st63{clip-path:url(#SVGID_2_);fill:#D4E0ED;}
	.st64{clip-path:url(#SVGID_2_);fill:#D3DFED;}
	.st65{clip-path:url(#SVGID_2_);fill:#D2DEED;}
	.st66{clip-path:url(#SVGID_2_);fill:#D2DEEC;}
	.st67{clip-path:url(#SVGID_2_);fill:#D1DDEC;}
	.st68{clip-path:url(#SVGID_2_);fill:#D0DCEC;}
	.st69{clip-path:url(#SVGID_2_);fill:#CFDCEB;}
	.st70{clip-path:url(#SVGID_2_);fill:#CEDBEB;}
	.st71{clip-path:url(#SVGID_2_);fill:#CDDBEB;}
	.st72{clip-path:url(#SVGID_2_);fill:#CCDAEA;}
	.st73{clip-path:url(#SVGID_2_);fill:#CCD9EA;}
	.st74{clip-path:url(#SVGID_2_);fill:#CBD9E9;}
	.st75{clip-path:url(#SVGID_2_);fill:#CAD8E9;}
	.st76{clip-path:url(#SVGID_2_);fill:#C9D7E9;}
	.st77{clip-path:url(#SVGID_2_);fill:#C8D7E8;}
	.st78{clip-path:url(#SVGID_2_);fill:#C7D6E8;}
	.st79{clip-path:url(#SVGID_2_);fill:#C6D5E8;}
	.st80{clip-path:url(#SVGID_2_);fill:#C5D5E7;}
	.st81{clip-path:url(#SVGID_2_);fill:#C4D4E7;}
	.st82{clip-path:url(#SVGID_2_);fill:#C3D3E6;}
	.st83{clip-path:url(#SVGID_2_);fill:#C2D3E6;}
	.st84{clip-path:url(#SVGID_2_);fill:#C1D2E6;}
	.st85{clip-path:url(#SVGID_2_);fill:#C1D1E5;}
	.st86{clip-path:url(#SVGID_2_);fill:#C0D1E5;}
	.st87{clip-path:url(#SVGID_2_);fill:#BFD0E5;}
	.st88{clip-path:url(#SVGID_2_);fill:#BECFE4;}
	.st89{clip-path:url(#SVGID_2_);fill:#BDCEE4;}
	.st90{clip-path:url(#SVGID_2_);fill:#BCCEE3;}
	.st91{clip-path:url(#SVGID_2_);fill:#BBCDE3;}
	.st92{clip-path:url(#SVGID_2_);fill:#BACCE3;}
	.st93{clip-path:url(#SVGID_2_);fill:#B9CCE2;}
	.st94{clip-path:url(#SVGID_2_);fill:#B8CBE2;}
	.st95{clip-path:url(#SVGID_2_);fill:#B7CAE1;}
	.st96{clip-path:url(#SVGID_2_);fill:#B6C9E1;}
	.st97{clip-path:url(#SVGID_2_);fill:#B5C9E1;}
	.st98{clip-path:url(#SVGID_2_);fill:#B4C8E0;}
	.st99{clip-path:url(#SVGID_2_);fill:#B3C7E0;}
	.st100{clip-path:url(#SVGID_2_);fill:#B2C7DF;}
	.st101{clip-path:url(#SVGID_2_);fill:#B1C6DF;}
	.st102{clip-path:url(#SVGID_2_);fill:#B0C5DE;}
	.st103{clip-path:url(#SVGID_2_);fill:#AFC4DE;}
	.st104{clip-path:url(#SVGID_2_);fill:#AEC4DE;}
	.st105{clip-path:url(#SVGID_2_);fill:#ADC3DD;}
	.st106{clip-path:url(#SVGID_2_);fill:#ACC2DD;}
	.st107{clip-path:url(#SVGID_2_);fill:#ABC1DC;}
	.st108{clip-path:url(#SVGID_2_);fill:#AAC1DC;}
	.st109{clip-path:url(#SVGID_2_);fill:#A9C0DC;}
	.st110{clip-path:url(#SVGID_2_);fill:#A8BFDB;}
	.st111{clip-path:url(#SVGID_2_);fill:#A7BEDB;}
	.st112{clip-path:url(#SVGID_2_);fill:#A6BEDA;}
	.st113{clip-path:url(#SVGID_2_);fill:#A5BDDA;}
	.st114{clip-path:url(#SVGID_2_);fill:#A4BCD9;}
	.st115{clip-path:url(#SVGID_2_);fill:#A3BBD9;}
	.st116{clip-path:url(#SVGID_2_);fill:#A1BAD8;}
	.st117{clip-path:url(#SVGID_2_);fill:#A0BAD8;}
	.st118{clip-path:url(#SVGID_2_);fill:#9FB9D8;}
	.st119{clip-path:url(#SVGID_2_);fill:#9EB8D7;}
	.st120{clip-path:url(#SVGID_2_);fill:#9DB7D7;}
	.st121{clip-path:url(#SVGID_2_);fill:#9CB6D6;}
	.st122{clip-path:url(#SVGID_2_);fill:#9BB6D6;}
	.st123{clip-path:url(#SVGID_2_);fill:#9AB5D5;}
	.st124{clip-path:url(#SVGID_2_);fill:#99B4D5;}
	.st125{clip-path:url(#SVGID_2_);fill:#98B3D4;}
	.st126{clip-path:url(#SVGID_2_);fill:#97B2D4;}
	.st127{clip-path:url(#SVGID_2_);fill:#96B2D4;}
	.st128{clip-path:url(#SVGID_2_);fill:#94B1D3;}
	.st129{clip-path:url(#SVGID_2_);fill:#93B0D3;}
	.st130{clip-path:url(#SVGID_2_);fill:#92AFD2;}
	.st131{clip-path:url(#SVGID_2_);fill:#91AED2;}
	.st132{clip-path:url(#SVGID_2_);fill:#90AED1;}
	.st133{clip-path:url(#SVGID_2_);fill:#8FADD1;}
	.st134{clip-path:url(#SVGID_2_);fill:#8EACD0;}
	.st135{clip-path:url(#SVGID_2_);fill:#8DABD0;}
	.st136{clip-path:url(#SVGID_2_);fill:#8CAACF;}
	.st137{clip-path:url(#SVGID_2_);fill:#8AA9CF;}
	.st138{clip-path:url(#SVGID_2_);fill:#89A9CF;}
	.st139{clip-path:url(#SVGID_2_);fill:#88A8CE;}
	.st140{clip-path:url(#SVGID_2_);fill:#87A7CE;}
	.st141{clip-path:url(#SVGID_2_);fill:#86A6CD;}
	.st142{clip-path:url(#SVGID_2_);fill:#85A5CD;}
	.st143{clip-path:url(#SVGID_2_);fill:#84A4CC;}
	.st144{clip-path:url(#SVGID_2_);fill:#82A4CC;}
	.st145{clip-path:url(#SVGID_2_);fill:#81A3CB;}
	.st146{clip-path:url(#SVGID_2_);fill:#80A2CB;}
	.st147{clip-path:url(#SVGID_2_);fill:#7FA1CA;}
	.st148{clip-path:url(#SVGID_2_);fill:#7EA0CA;}
	.st149{clip-path:url(#SVGID_2_);fill:#7D9FC9;}
	.st150{clip-path:url(#SVGID_2_);fill:#7B9EC9;}
	.st151{clip-path:url(#SVGID_2_);fill:#7A9EC8;}
	.st152{clip-path:url(#SVGID_2_);fill:#799DC8;}
	.st153{clip-path:url(#SVGID_2_);fill:#789CC7;}
	.st154{clip-path:url(#SVGID_2_);fill:#779BC7;}
	.st155{clip-path:url(#SVGID_2_);fill:#759AC6;}
	.st156{clip-path:url(#SVGID_2_);fill:#7499C6;}
	.st157{clip-path:url(#SVGID_2_);fill:#7398C5;}
	.st158{clip-path:url(#SVGID_2_);fill:#7297C5;}
	.st159{clip-path:url(#SVGID_2_);fill:#7197C4;}
	.st160{clip-path:url(#SVGID_2_);fill:#6F96C4;}
	.st161{clip-path:url(#SVGID_2_);fill:#6E95C3;}
	.st162{clip-path:url(#SVGID_2_);fill:#6D94C3;}
	.st163{clip-path:url(#SVGID_2_);fill:#6C93C2;}
	.st164{clip-path:url(#SVGID_2_);fill:#6B92C2;}
	.st165{clip-path:url(#SVGID_2_);fill:#6991C1;}
	.st166{clip-path:url(#SVGID_2_);fill:#6890C1;}
	.st167{clip-path:url(#SVGID_2_);fill:#678FC0;}
	.st168{clip-path:url(#SVGID_2_);fill:#668FC0;}
	.st169{clip-path:url(#SVGID_2_);fill:#648EBF;}
	.st170{clip-path:url(#SVGID_2_);fill:#638DBF;}
	.st171{clip-path:url(#SVGID_2_);fill:#628CBE;}
	.st172{clip-path:url(#SVGID_2_);fill:#618BBE;}
	.st173{clip-path:url(#SVGID_2_);fill:#5F8ABD;}
	.st174{clip-path:url(#SVGID_2_);fill:#5E89BD;}
	.st175{clip-path:url(#SVGID_2_);fill:#5D88BC;}
	.st176{clip-path:url(#SVGID_2_);fill:#5C87BC;}
	.st177{clip-path:url(#SVGID_2_);fill:#5A86BB;}
	.st178{clip-path:url(#SVGID_2_);fill:#5985BB;}
	.st179{clip-path:url(#SVGID_2_);fill:#5884BA;}
	.st180{clip-path:url(#SVGID_2_);fill:#5784BA;}
	.st181{clip-path:url(#SVGID_2_);fill:#5583B9;}
	.st182{clip-path:url(#SVGID_2_);fill:#5482B9;}
	.st183{clip-path:url(#SVGID_2_);fill:#5381B8;}
	.st184{clip-path:url(#SVGID_2_);fill:#5280B8;}
	.st185{clip-path:url(#SVGID_2_);fill:#507FB7;}
	.st186{clip-path:url(#SVGID_2_);fill:#4F7EB7;}
	.st187{clip-path:url(#SVGID_2_);fill:#4E7DB6;}
	.st188{clip-path:url(#SVGID_2_);fill:#4C7CB5;}
	.st189{clip-path:url(#SVGID_2_);fill:#4B7BB5;}
	.st190{clip-path:url(#SVGID_2_);fill:#4A7AB4;}
	.st191{clip-path:url(#SVGID_2_);fill:#4979B4;}
	.st192{clip-path:url(#SVGID_2_);fill:#4778B3;}
	.st193{clip-path:url(#SVGID_2_);fill:#4677B3;}
	.st194{clip-path:url(#SVGID_2_);fill:#4576B2;}
	.st195{clip-path:url(#SVGID_2_);fill:#4375B2;}
	.st196{clip-path:url(#SVGID_2_);fill:#4274B1;}
	.st197{clip-path:url(#SVGID_2_);fill:#4173B1;}
	.st198{clip-path:url(#SVGID_2_);fill:#3F72B0;}
	.st199{clip-path:url(#SVGID_2_);fill:#3E72B0;}
	.st200{clip-path:url(#SVGID_2_);fill:#3D71AF;}
	.st201{clip-path:url(#SVGID_2_);fill:#3B70AE;}
	.st202{clip-path:url(#SVGID_2_);fill:#3A6FAE;}
	.st203{clip-path:url(#SVGID_2_);fill:#396EAD;}
	.st204{clip-path:url(#SVGID_2_);fill:#376DAD;}
	.st205{clip-path:url(#SVGID_2_);fill:#366CAC;}
	.st206{clip-path:url(#SVGID_2_);fill:#356BAC;}
	.st207{clip-path:url(#SVGID_2_);fill:#336AAB;}
	.st208{clip-path:url(#SVGID_2_);fill:#3269AB;}
	.st209{clip-path:url(#SVGID_2_);fill:#3168AA;}
	.st210{clip-path:url(#SVGID_2_);fill:#2F67AA;}
	.st211{clip-path:url(#SVGID_2_);fill:#2E66A9;}
	.st212{clip-path:url(#SVGID_2_);fill:#2D65A8;}
	.st213{clip-path:url(#SVGID_2_);fill:#2B64A8;}
	.st214{clip-path:url(#SVGID_2_);fill:#2A63A7;}
	.st215{clip-path:url(#SVGID_2_);fill:#2962A7;}
	.st216{clip-path:url(#SVGID_2_);fill:#2761A6;}
	.st217{clip-path:url(#SVGID_2_);fill:#2660A6;}
	.st218{clip-path:url(#SVGID_2_);fill:#255FA5;}
	.st219{clip-path:url(#SVGID_2_);fill:#235EA4;}
	.st220{clip-path:url(#SVGID_2_);fill:#225DA4;}
	.st221{clip-path:url(#SVGID_2_);fill:#205CA3;}
	.st222{clip-path:url(#SVGID_2_);fill:#1F5BA3;}
	.st223{clip-path:url(#SVGID_2_);fill:#1E5AA2;}
	.st224{clip-path:url(#SVGID_2_);fill:#1C59A2;}
	.st225{clip-path:url(#SVGID_2_);fill:#1B58A1;}
	.st226{clip-path:url(#SVGID_2_);fill:#1957A0;}
	.st227{clip-path:url(#SVGID_2_);fill:#1856A0;}
	.st228{clip-path:url(#SVGID_2_);fill:#17559F;}
	.st229{clip-path:url(#SVGID_2_);fill:#15549F;}
	.st230{clip-path:url(#SVGID_2_);fill:#14539E;}
	.st231{clip-path:url(#SVGID_2_);fill:#12529E;}
	.st232{clip-path:url(#SVGID_2_);fill:#11519D;}
	.st233{clip-path:url(#SVGID_2_);fill:#104F9C;}
	.st234{clip-path:url(#SVGID_2_);fill:#0E4E9C;}
	.st235{clip-path:url(#SVGID_2_);fill:#0D4D9B;}
	.st236{clip-path:url(#SVGID_2_);fill:#0B4C9B;}
	.st237{clip-path:url(#SVGID_2_);fill:#0A4B9A;}
	.st238{clip-path:url(#SVGID_2_);fill:#094A9A;}
	.st239{clip-path:url(#SVGID_2_);fill:#074999;}
	.st240{clip-path:url(#SVGID_2_);fill:#064898;}
	.st241{clip-path:url(#SVGID_2_);fill:#044798;}
	.st242{clip-path:url(#SVGID_2_);fill:#034697;}
	.st243{clip-path:url(#SVGID_2_);fill:#014597;}
	.st244{clip-path:url(#SVGID_2_);fill:#004496;}
	.st245{opacity:0.4;fill:#FFFFFF;}
	.st246{opacity:0.2;fill:#041860;}
	.st247{fill:#A3A3A3;}
	.st248{fill:#DDE1ED;}
</style>
<path class="st0" d="M319.3,342.1L229.5,394c-4,2.3-10.1,2.6-13.6,0.6L19.1,280.9c-3.5-2-3-5.5,1-7.8l89.8-51.9
	c4-2.3,10.1-2.6,13.6-0.6l196.9,113.7C323.8,336.3,323.4,339.8,319.3,342.1z"/>
<g>
	<path class="st1" d="M322.7,304l-18.5-3.2L123.5,196.4c-3.5-2-9.5-1.8-13.6,0.6l-83.7,48.3l-9.4-1.6l0,9.6l0,0
		c0,1.3,0.8,2.5,2.3,3.4L216,370.4c3.5,2,9.5,1.8,13.6-0.6l89.8-51.9c2.2-1.3,3.3-2.9,3.3-4.5l0,0V304z"/>
	<path class="st1" d="M319.3,308.4l-89.8,51.9c-4,2.3-10.1,2.6-13.6,0.6L19.1,247.2c-3.5-2-3-5.5,1-7.8l89.8-51.9
		c4-2.3,10.1-2.6,13.6-0.6l196.9,113.7C323.8,302.6,323.4,306.1,319.3,308.4z"/>
	<path class="st2" d="M319.3,307.2l-89.8,51.9c-4,2.3-10.1,2.6-13.6,0.6L19.1,246c-1.3-0.8-2.1-1.7-2.3-2.8c-0.3,1.5,0.5,2.9,2.3,4
		L216,360.8c3.5,2,9.5,1.8,13.6-0.6l89.8-51.9c2.5-1.4,3.6-3.3,3.3-5.1C322.3,304.7,321.3,306.1,319.3,307.2z"/>
	<polygon class="st2" points="319.5,300.1 215.1,360.4 20,247.7 124.3,187.4 	"/>
	<path class="st2" d="M78.5,211l-13.9,8c-0.6,0.3-1.5,0.4-2,0.1l-0.1-0.1c-0.5-0.3-0.5-0.8,0.1-1.2l13.9-8c0.6-0.3,1.5-0.4,2-0.1
		l0.1,0.1C79.1,210.1,79.1,210.7,78.5,211z"/>
</g>
<g>
	<g>
		<defs>
			<polygon id="SVGID_1_" points="257,294.6 215.4,322.2 80.6,255.1 122.2,227.5 			"/>
		</defs>
		<clipPath id="SVGID_2_">
			<use xlink:href="#SVGID_1_"  style="overflow:visible;"/>
		</clipPath>
		<rect x="80.6" y="227.5" class="st3" width="176.4" height="94.7"/>
		
			<ellipse transform="matrix(0.4289 -0.9033 0.9033 0.4289 -151.5848 309.2427)" class="st3" cx="168.8" cy="274.5" rx="21" ry="70.9"/>
		
			<ellipse transform="matrix(0.4289 -0.9033 0.9033 0.4289 -151.5848 309.2426)" class="st3" cx="168.8" cy="274.5" rx="20.9" ry="70.6"/>
		
			<ellipse transform="matrix(0.4289 -0.9033 0.9033 0.4289 -151.5848 309.2428)" class="st3" cx="168.8" cy="274.5" rx="20.8" ry="70.3"/>
		
			<ellipse transform="matrix(0.4289 -0.9033 0.9033 0.4289 -151.5848 309.2426)" class="st3" cx="168.8" cy="274.5" rx="20.7" ry="70.1"/>
		
			<ellipse transform="matrix(0.4289 -0.9033 0.9033 0.4289 -151.5848 309.2429)" class="st4" cx="168.8" cy="274.5" rx="20.6" ry="69.8"/>
		
			<ellipse transform="matrix(0.4289 -0.9033 0.9033 0.4289 -151.5848 309.2426)" class="st5" cx="168.8" cy="274.5" rx="20.5" ry="69.5"/>
		
			<ellipse transform="matrix(0.4289 -0.9033 0.9033 0.4289 -151.5848 309.2427)" class="st5" cx="168.8" cy="274.5" rx="20.5" ry="69.2"/>
		
			<ellipse transform="matrix(0.4289 -0.9033 0.9033 0.4289 -151.5848 309.2426)" class="st6" cx="168.8" cy="274.5" rx="20.4" ry="68.9"/>
		
			<ellipse transform="matrix(0.4289 -0.9033 0.9033 0.4289 -151.5848 309.2427)" class="st7" cx="168.8" cy="274.5" rx="20.3" ry="68.7"/>
		
			<ellipse transform="matrix(0.4289 -0.9033 0.9033 0.4289 -151.5848 309.2426)" class="st8" cx="168.8" cy="274.5" rx="20.2" ry="68.4"/>
		
			<ellipse transform="matrix(0.4289 -0.9033 0.9033 0.4289 -151.5848 309.2427)" class="st8" cx="168.8" cy="274.5" rx="20.1" ry="68.1"/>
		
			<ellipse transform="matrix(0.4289 -0.9033 0.9033 0.4289 -151.5848 309.2426)" class="st9" cx="168.8" cy="274.5" rx="20.1" ry="67.8"/>
		
			<ellipse transform="matrix(0.4289 -0.9033 0.9033 0.4289 -151.5848 309.2428)" class="st9" cx="168.8" cy="274.5" rx="20" ry="67.6"/>
		
			<ellipse transform="matrix(0.4289 -0.9033 0.9033 0.4289 -151.5848 309.2427)" class="st10" cx="168.8" cy="274.5" rx="19.9" ry="67.3"/>
		
			<ellipse transform="matrix(0.4289 -0.9033 0.9033 0.4289 -151.5848 309.2426)" class="st11" cx="168.8" cy="274.5" rx="19.8" ry="67"/>
		
			<ellipse transform="matrix(0.4289 -0.9033 0.9033 0.4289 -151.5848 309.2429)" class="st11" cx="168.8" cy="274.5" rx="19.7" ry="66.7"/>
		
			<ellipse transform="matrix(0.4289 -0.9033 0.9033 0.4289 -151.5848 309.2426)" class="st12" cx="168.8" cy="274.5" rx="19.6" ry="66.4"/>
		
			<ellipse transform="matrix(0.4289 -0.9033 0.9033 0.4289 -151.5848 309.2429)" class="st12" cx="168.8" cy="274.5" rx="19.6" ry="66.2"/>
		
			<ellipse transform="matrix(0.4289 -0.9033 0.9033 0.4289 -151.5848 309.2426)" class="st13" cx="168.8" cy="274.5" rx="19.5" ry="65.9"/>
		
			<ellipse transform="matrix(0.4289 -0.9033 0.9033 0.4289 -151.5848 309.2427)" class="st14" cx="168.8" cy="274.5" rx="19.4" ry="65.6"/>
		
			<ellipse transform="matrix(0.4289 -0.9033 0.9033 0.4289 -151.5848 309.2426)" class="st15" cx="168.8" cy="274.5" rx="19.3" ry="65.3"/>
		
			<ellipse transform="matrix(0.4289 -0.9033 0.9033 0.4289 -151.5848 309.2427)" class="st15" cx="168.8" cy="274.5" rx="19.2" ry="65.1"/>
		
			<ellipse transform="matrix(0.4289 -0.9033 0.9033 0.4289 -151.5848 309.2426)" class="st16" cx="168.8" cy="274.5" rx="19.2" ry="64.8"/>
		
			<ellipse transform="matrix(0.4289 -0.9033 0.9033 0.4289 -151.5848 309.2427)" class="st16" cx="168.8" cy="274.5" rx="19.1" ry="64.5"/>
		
			<ellipse transform="matrix(0.4289 -0.9033 0.9033 0.4289 -151.5848 309.2426)" class="st17" cx="168.8" cy="274.5" rx="19" ry="64.2"/>
		
			<ellipse transform="matrix(0.4289 -0.9033 0.9033 0.4289 -151.5848 309.2428)" class="st18" cx="168.8" cy="274.5" rx="18.9" ry="63.9"/>
		
			<ellipse transform="matrix(0.4289 -0.9033 0.9033 0.4289 -151.5848 309.2428)" class="st19" cx="168.8" cy="274.5" rx="18.8" ry="63.7"/>
		
			<ellipse transform="matrix(0.4289 -0.9033 0.9033 0.4289 -151.5848 309.2425)" class="st20" cx="168.8" cy="274.5" rx="18.7" ry="63.4"/>
		
			<ellipse transform="matrix(0.4289 -0.9033 0.9033 0.4289 -151.5848 309.2429)" class="st21" cx="168.8" cy="274.5" rx="18.7" ry="63.1"/>
		
			<ellipse transform="matrix(0.4289 -0.9033 0.9033 0.4289 -151.5848 309.2426)" class="st22" cx="168.8" cy="274.5" rx="18.6" ry="62.8"/>
		
			<ellipse transform="matrix(0.4289 -0.9033 0.9033 0.4289 -151.5848 309.2429)" class="st23" cx="168.8" cy="274.5" rx="18.5" ry="62.6"/>
		
			<ellipse transform="matrix(0.4289 -0.9033 0.9033 0.4289 -151.5848 309.2426)" class="st24" cx="168.8" cy="274.5" rx="18.4" ry="62.3"/>
		
			<ellipse transform="matrix(0.4289 -0.9033 0.9033 0.4289 -151.5848 309.2427)" class="st25" cx="168.8" cy="274.5" rx="18.3" ry="62"/>
		
			<ellipse transform="matrix(0.4289 -0.9033 0.9033 0.4289 -151.5848 309.2426)" class="st26" cx="168.8" cy="274.5" rx="18.2" ry="61.7"/>
		
			<ellipse transform="matrix(0.4289 -0.9033 0.9033 0.4289 -151.5848 309.2427)" class="st27" cx="168.8" cy="274.5" rx="18.2" ry="61.4"/>
		
			<ellipse transform="matrix(0.4289 -0.9033 0.9033 0.4289 -151.5848 309.2426)" class="st28" cx="168.8" cy="274.5" rx="18.1" ry="61.2"/>
		
			<ellipse transform="matrix(0.4289 -0.9033 0.9033 0.4289 -151.5848 309.2427)" class="st29" cx="168.8" cy="274.5" rx="18" ry="60.9"/>
		
			<ellipse transform="matrix(0.4289 -0.9033 0.9033 0.4289 -151.5848 309.2426)" class="st30" cx="168.8" cy="274.5" rx="17.9" ry="60.6"/>
		
			<ellipse transform="matrix(0.4289 -0.9033 0.9033 0.4289 -151.5848 309.2428)" class="st31" cx="168.8" cy="274.5" rx="17.8" ry="60.3"/>
		
			<ellipse transform="matrix(0.4289 -0.9033 0.9033 0.4289 -151.5848 309.2429)" class="st32" cx="168.8" cy="274.5" rx="17.8" ry="60.1"/>
		
			<ellipse transform="matrix(0.4289 -0.9033 0.9033 0.4289 -151.5848 309.2425)" class="st33" cx="168.8" cy="274.5" rx="17.7" ry="59.8"/>
		
			<ellipse transform="matrix(0.4289 -0.9033 0.9033 0.4289 -151.5848 309.2429)" class="st34" cx="168.8" cy="274.5" rx="17.6" ry="59.5"/>
		
			<ellipse transform="matrix(0.4289 -0.9033 0.9033 0.4289 -151.5848 309.2425)" class="st34" cx="168.8" cy="274.5" rx="17.5" ry="59.2"/>
		
			<ellipse transform="matrix(0.4289 -0.9033 0.9033 0.4289 -151.5848 309.2429)" class="st35" cx="168.8" cy="274.5" rx="17.4" ry="58.9"/>
		
			<ellipse transform="matrix(0.4289 -0.9033 0.9033 0.4289 -151.5848 309.2426)" class="st36" cx="168.8" cy="274.5" rx="17.3" ry="58.7"/>
		
			<ellipse transform="matrix(0.4289 -0.9033 0.9033 0.4289 -151.5848 309.2427)" class="st37" cx="168.8" cy="274.5" rx="17.3" ry="58.4"/>
		
			<ellipse transform="matrix(0.4289 -0.9033 0.9033 0.4289 -151.5848 309.2426)" class="st38" cx="168.8" cy="274.5" rx="17.2" ry="58.1"/>
		
			<ellipse transform="matrix(0.4289 -0.9033 0.9033 0.4289 -151.5848 309.2427)" class="st39" cx="168.8" cy="274.5" rx="17.1" ry="57.8"/>
		
			<ellipse transform="matrix(0.4289 -0.9033 0.9033 0.4289 -151.5848 309.2426)" class="st40" cx="168.8" cy="274.5" rx="17" ry="57.5"/>
		
			<ellipse transform="matrix(0.4289 -0.9033 0.9033 0.4289 -151.5848 309.2427)" class="st41" cx="168.8" cy="274.5" rx="16.9" ry="57.3"/>
		
			<ellipse transform="matrix(0.4289 -0.9033 0.9033 0.4289 -151.5848 309.2428)" class="st42" cx="168.8" cy="274.5" rx="16.8" ry="57"/>
		
			<ellipse transform="matrix(0.4289 -0.9033 0.9033 0.4289 -151.5848 309.2427)" class="st43" cx="168.8" cy="274.5" rx="16.8" ry="56.7"/>
		
			<ellipse transform="matrix(0.4289 -0.9033 0.9033 0.4289 -151.5848 309.2429)" class="st43" cx="168.8" cy="274.5" rx="16.7" ry="56.4"/>
		
			<ellipse transform="matrix(0.4289 -0.9033 0.9033 0.4289 -151.5848 309.2425)" class="st44" cx="168.8" cy="274.5" rx="16.6" ry="56.2"/>
		
			<ellipse transform="matrix(0.4289 -0.9033 0.9033 0.4289 -151.5848 309.2429)" class="st45" cx="168.8" cy="274.5" rx="16.5" ry="55.9"/>
		
			<ellipse transform="matrix(0.4289 -0.9033 0.9033 0.4289 -151.5848 309.2425)" class="st46" cx="168.8" cy="274.5" rx="16.4" ry="55.6"/>
		
			<ellipse transform="matrix(0.4289 -0.9033 0.9033 0.4289 -151.5847 309.2429)" class="st46" cx="168.8" cy="274.5" rx="16.4" ry="55.3"/>
		
			<ellipse transform="matrix(0.4289 -0.9033 0.9033 0.4289 -151.5848 309.2426)" class="st47" cx="168.8" cy="274.5" rx="16.3" ry="55"/>
		
			<ellipse transform="matrix(0.4289 -0.9033 0.9033 0.4289 -151.5848 309.2427)" class="st48" cx="168.8" cy="274.5" rx="16.2" ry="54.8"/>
		
			<ellipse transform="matrix(0.4289 -0.9033 0.9033 0.4289 -151.5848 309.2426)" class="st49" cx="168.8" cy="274.5" rx="16.1" ry="54.5"/>
		
			<ellipse transform="matrix(0.4289 -0.9033 0.9033 0.4289 -151.5848 309.2427)" class="st50" cx="168.8" cy="274.5" rx="16" ry="54.2"/>
		
			<ellipse transform="matrix(0.4289 -0.9033 0.9033 0.4289 -151.5848 309.2426)" class="st51" cx="168.8" cy="274.5" rx="15.9" ry="53.9"/>
		
			<ellipse transform="matrix(0.4289 -0.9033 0.9033 0.4289 -151.5848 309.2427)" class="st52" cx="168.8" cy="274.5" rx="15.9" ry="53.7"/>
		
			<ellipse transform="matrix(0.4289 -0.9033 0.9033 0.4289 -151.5848 309.2429)" class="st53" cx="168.8" cy="274.5" rx="15.8" ry="53.4"/>
		
			<ellipse transform="matrix(0.4289 -0.9033 0.9033 0.4289 -151.5848 309.2427)" class="st54" cx="168.8" cy="274.5" rx="15.7" ry="53.1"/>
		
			<ellipse transform="matrix(0.4289 -0.9033 0.9033 0.4289 -151.5848 309.2429)" class="st55" cx="168.8" cy="274.5" rx="15.6" ry="52.8"/>
		
			<ellipse transform="matrix(0.4289 -0.9033 0.9033 0.4289 -151.5848 309.2425)" class="st56" cx="168.8" cy="274.5" rx="15.5" ry="52.5"/>
		
			<ellipse transform="matrix(0.4289 -0.9033 0.9033 0.4289 -151.5848 309.2429)" class="st57" cx="168.8" cy="274.5" rx="15.5" ry="52.3"/>
		
			<ellipse transform="matrix(0.4289 -0.9033 0.9033 0.4289 -151.5848 309.2425)" class="st58" cx="168.8" cy="274.5" rx="15.4" ry="52"/>
		
			<ellipse transform="matrix(0.4289 -0.9033 0.9033 0.4289 -151.5847 309.2429)" class="st59" cx="168.8" cy="274.5" rx="15.3" ry="51.7"/>
		
			<ellipse transform="matrix(0.4289 -0.9033 0.9033 0.4289 -151.5848 309.2425)" class="st60" cx="168.8" cy="274.5" rx="15.2" ry="51.4"/>
		
			<ellipse transform="matrix(0.4289 -0.9033 0.9033 0.4289 -151.5848 309.2427)" class="st61" cx="168.8" cy="274.5" rx="15.1" ry="51.2"/>
		
			<ellipse transform="matrix(0.4289 -0.9033 0.9033 0.4289 -151.5848 309.2426)" class="st62" cx="168.8" cy="274.5" rx="15" ry="50.9"/>
		
			<ellipse transform="matrix(0.4289 -0.9033 0.9033 0.4289 -151.5848 309.2427)" class="st63" cx="168.8" cy="274.5" rx="15" ry="50.6"/>
		
			<ellipse transform="matrix(0.4289 -0.9033 0.9033 0.4289 -151.5848 309.2427)" class="st64" cx="168.8" cy="274.5" rx="14.9" ry="50.3"/>
		
			<ellipse transform="matrix(0.4289 -0.9033 0.9033 0.4289 -151.5848 309.2427)" class="st65" cx="168.8" cy="274.5" rx="14.8" ry="50"/>
		
			<ellipse transform="matrix(0.4289 -0.9033 0.9033 0.4289 -151.5848 309.2429)" class="st66" cx="168.8" cy="274.5" rx="14.7" ry="49.8"/>
		
			<ellipse transform="matrix(0.4289 -0.9033 0.9033 0.4289 -151.5848 309.2427)" class="st67" cx="168.8" cy="274.5" rx="14.6" ry="49.5"/>
		
			<ellipse transform="matrix(0.4289 -0.9033 0.9033 0.4289 -151.5847 309.2429)" class="st68" cx="168.8" cy="274.5" rx="14.5" ry="49.2"/>
		
			<ellipse transform="matrix(0.4289 -0.9033 0.9033 0.4289 -151.5848 309.2424)" class="st69" cx="168.8" cy="274.5" rx="14.5" ry="48.9"/>
		
			<ellipse transform="matrix(0.4289 -0.9033 0.9033 0.4289 -151.5847 309.2429)" class="st70" cx="168.8" cy="274.5" rx="14.4" ry="48.7"/>
		
			<ellipse transform="matrix(0.4289 -0.9033 0.9033 0.4289 -151.5848 309.2425)" class="st71" cx="168.8" cy="274.5" rx="14.3" ry="48.4"/>
		
			<ellipse transform="matrix(0.4289 -0.9033 0.9033 0.4289 -151.5847 309.2429)" class="st72" cx="168.8" cy="274.5" rx="14.2" ry="48.1"/>
		
			<ellipse transform="matrix(0.4289 -0.9033 0.9033 0.4289 -151.5848 309.2425)" class="st73" cx="168.8" cy="274.5" rx="14.1" ry="47.8"/>
		
			<ellipse transform="matrix(0.4289 -0.9033 0.9033 0.4289 -151.5848 309.2426)" class="st74" cx="168.8" cy="274.5" rx="14.1" ry="47.5"/>
		
			<ellipse transform="matrix(0.4289 -0.9033 0.9033 0.4289 -151.5848 309.2425)" class="st75" cx="168.8" cy="274.5" rx="14" ry="47.3"/>
		
			<ellipse transform="matrix(0.4289 -0.9033 0.9033 0.4289 -151.5848 309.2427)" class="st76" cx="168.8" cy="274.5" rx="13.9" ry="47"/>
		
			<ellipse transform="matrix(0.4289 -0.9033 0.9033 0.4289 -151.5848 309.2428)" class="st77" cx="168.8" cy="274.5" rx="13.8" ry="46.7"/>
		
			<ellipse transform="matrix(0.4289 -0.9033 0.9033 0.4289 -151.5848 309.2427)" class="st78" cx="168.8" cy="274.5" rx="13.7" ry="46.4"/>
		
			<ellipse transform="matrix(0.4289 -0.9033 0.9033 0.4289 -151.5848 309.2429)" class="st79" cx="168.8" cy="274.5" rx="13.6" ry="46.2"/>
		
			<ellipse transform="matrix(0.4289 -0.9033 0.9033 0.4289 -151.5848 309.2427)" class="st80" cx="168.8" cy="274.5" rx="13.6" ry="45.9"/>
		
			<ellipse transform="matrix(0.4289 -0.9033 0.9033 0.4289 -151.5848 309.2429)" class="st81" cx="168.8" cy="274.5" rx="13.5" ry="45.6"/>
		
			<ellipse transform="matrix(0.4289 -0.9033 0.9033 0.4289 -151.5848 309.2424)" class="st82" cx="168.8" cy="274.5" rx="13.4" ry="45.3"/>
		
			<ellipse transform="matrix(0.4289 -0.9033 0.9033 0.4289 -151.5847 309.2429)" class="st83" cx="168.8" cy="274.5" rx="13.3" ry="45"/>
		
			<ellipse transform="matrix(0.4289 -0.9033 0.9033 0.4289 -151.5848 309.2424)" class="st84" cx="168.8" cy="274.5" rx="13.2" ry="44.8"/>
		
			<ellipse transform="matrix(0.4289 -0.9033 0.9033 0.4289 -151.5847 309.2429)" class="st85" cx="168.8" cy="274.5" rx="13.2" ry="44.5"/>
		
			<ellipse transform="matrix(0.4289 -0.9033 0.9033 0.4289 -151.5848 309.2425)" class="st86" cx="168.8" cy="274.5" rx="13.1" ry="44.2"/>
		
			<ellipse transform="matrix(0.4289 -0.9033 0.9033 0.4289 -151.5848 309.2427)" class="st87" cx="168.8" cy="274.5" rx="13" ry="43.9"/>
		
			<ellipse transform="matrix(0.4289 -0.9033 0.9033 0.4289 -151.5848 309.2427)" class="st88" cx="168.8" cy="274.5" rx="12.9" ry="43.6"/>
		
			<ellipse transform="matrix(0.4289 -0.9033 0.9033 0.4289 -151.5848 309.2427)" class="st89" cx="168.8" cy="274.5" rx="12.8" ry="43.4"/>
		
			<ellipse transform="matrix(0.4289 -0.9033 0.9033 0.4289 -151.5848 309.2428)" class="st90" cx="168.8" cy="274.5" rx="12.7" ry="43.1"/>
		
			<ellipse transform="matrix(0.4289 -0.9033 0.9033 0.4289 -151.5848 309.2427)" class="st91" cx="168.8" cy="274.5" rx="12.7" ry="42.8"/>
		
			<ellipse transform="matrix(0.4289 -0.9033 0.9033 0.4289 -151.5848 309.2429)" class="st92" cx="168.8" cy="274.5" rx="12.6" ry="42.5"/>
		
			<ellipse transform="matrix(0.4289 -0.9033 0.9033 0.4289 -151.5848 309.2427)" class="st93" cx="168.8" cy="274.5" rx="12.5" ry="42.3"/>
		
			<ellipse transform="matrix(0.4289 -0.9033 0.9033 0.4289 -151.5847 309.2429)" class="st94" cx="168.8" cy="274.5" rx="12.4" ry="42"/>
		
			<ellipse transform="matrix(0.4289 -0.9033 0.9033 0.4289 -151.5848 309.2424)" class="st95" cx="168.8" cy="274.5" rx="12.3" ry="41.7"/>
		
			<ellipse transform="matrix(0.4289 -0.9033 0.9033 0.4289 -151.5847 309.2429)" class="st96" cx="168.8" cy="274.5" rx="12.2" ry="41.4"/>
		
			<ellipse transform="matrix(0.4289 -0.9033 0.9033 0.4289 -151.5848 309.2424)" class="st97" cx="168.8" cy="274.5" rx="12.2" ry="41.1"/>
		
			<ellipse transform="matrix(0.4289 -0.9033 0.9033 0.4289 -151.5847 309.243)" class="st98" cx="168.8" cy="274.5" rx="12.1" ry="40.9"/>
		
			<ellipse transform="matrix(0.4289 -0.9033 0.9033 0.4289 -151.5848 309.2424)" class="st99" cx="168.8" cy="274.5" rx="12" ry="40.6"/>
		
			<ellipse transform="matrix(0.4289 -0.9033 0.9033 0.4289 -151.5848 309.2426)" class="st100" cx="168.8" cy="274.5" rx="11.9" ry="40.3"/>
		
			<ellipse transform="matrix(0.4289 -0.9033 0.9033 0.4289 -151.5848 309.2426)" class="st101" cx="168.8" cy="274.5" rx="11.8" ry="40"/>
		
			<ellipse transform="matrix(0.4289 -0.9033 0.9033 0.4289 -151.5848 309.2426)" class="st102" cx="168.8" cy="274.5" rx="11.8" ry="39.8"/>
		
			<ellipse transform="matrix(0.4289 -0.9033 0.9033 0.4289 -151.5848 309.2428)" class="st103" cx="168.8" cy="274.5" rx="11.7" ry="39.5"/>
		
			<ellipse transform="matrix(0.4289 -0.9033 0.9033 0.4289 -151.5848 309.2427)" class="st104" cx="168.8" cy="274.5" rx="11.6" ry="39.2"/>
		
			<ellipse transform="matrix(0.4289 -0.9033 0.9033 0.4289 -151.5848 309.2429)" class="st105" cx="168.8" cy="274.5" rx="11.5" ry="38.9"/>
		
			<ellipse transform="matrix(0.4289 -0.9033 0.9033 0.4289 -151.5848 309.2427)" class="st106" cx="168.8" cy="274.5" rx="11.4" ry="38.6"/>
		
			<ellipse transform="matrix(0.4289 -0.9033 0.9033 0.4289 -151.5847 309.2429)" class="st107" cx="168.8" cy="274.5" rx="11.3" ry="38.4"/>
		
			<ellipse transform="matrix(0.4289 -0.9033 0.9033 0.4289 -151.5848 309.2424)" class="st108" cx="168.8" cy="274.5" rx="11.3" ry="38.1"/>
		
			<ellipse transform="matrix(0.4289 -0.9033 0.9033 0.4289 -151.5847 309.2429)" class="st109" cx="168.8" cy="274.5" rx="11.2" ry="37.8"/>
		
			<ellipse transform="matrix(0.4289 -0.9033 0.9033 0.4289 -151.5848 309.2424)" class="st110" cx="168.8" cy="274.5" rx="11.1" ry="37.5"/>
		
			<ellipse transform="matrix(0.4289 -0.9033 0.9033 0.4289 -151.5847 309.243)" class="st111" cx="168.8" cy="274.5" rx="11" ry="37.3"/>
		
			<ellipse transform="matrix(0.4289 -0.9033 0.9033 0.4289 -151.5848 309.2426)" class="st112" cx="168.8" cy="274.5" rx="10.9" ry="37"/>
		
			<ellipse transform="matrix(0.4289 -0.9033 0.9033 0.4289 -151.5848 309.2426)" class="st113" cx="168.8" cy="274.5" rx="10.8" ry="36.7"/>
		
			<ellipse transform="matrix(0.4289 -0.9033 0.9033 0.4289 -151.5848 309.2428)" class="st114" cx="168.8" cy="274.5" rx="10.8" ry="36.4"/>
		
			<ellipse transform="matrix(0.4289 -0.9033 0.9033 0.4289 -151.5848 309.2426)" class="st115" cx="168.8" cy="274.5" rx="10.7" ry="36.1"/>
		
			<ellipse transform="matrix(0.4289 -0.9033 0.9033 0.4289 -151.5848 309.2428)" class="st116" cx="168.8" cy="274.5" rx="10.6" ry="35.9"/>
		
			<ellipse transform="matrix(0.4289 -0.9033 0.9033 0.4289 -151.5848 309.2427)" class="st117" cx="168.8" cy="274.5" rx="10.5" ry="35.6"/>
		
			<ellipse transform="matrix(0.4289 -0.9033 0.9033 0.4289 -151.5847 309.2429)" class="st118" cx="168.8" cy="274.5" rx="10.4" ry="35.3"/>
		
			<ellipse transform="matrix(0.4289 -0.9033 0.9033 0.4289 -151.5848 309.2427)" class="st119" cx="168.8" cy="274.5" rx="10.4" ry="35"/>
		
			<ellipse transform="matrix(0.4289 -0.9033 0.9033 0.4289 -151.5847 309.2429)" class="st120" cx="168.8" cy="274.5" rx="10.3" ry="34.8"/>
		
			<ellipse transform="matrix(0.4289 -0.9033 0.9033 0.4289 -151.5848 309.2423)" class="st121" cx="168.8" cy="274.5" rx="10.2" ry="34.5"/>
		
			<ellipse transform="matrix(0.4289 -0.9033 0.9033 0.4289 -151.5847 309.2429)" class="st122" cx="168.8" cy="274.5" rx="10.1" ry="34.2"/>
		
			<ellipse transform="matrix(0.4289 -0.9033 0.9033 0.4289 -151.5848 309.2423)" class="st123" cx="168.8" cy="274.5" rx="10" ry="33.9"/>
		
			<ellipse transform="matrix(0.4289 -0.9033 0.9033 0.4289 -151.5848 309.2426)" class="st124" cx="168.8" cy="274.5" rx="9.9" ry="33.6"/>
		
			<ellipse transform="matrix(0.4289 -0.9033 0.9033 0.4289 -151.5848 309.2426)" class="st125" cx="168.8" cy="274.5" rx="9.9" ry="33.4"/>
		
			<ellipse transform="matrix(0.4289 -0.9033 0.9033 0.4289 -151.5848 309.2426)" class="st126" cx="168.8" cy="274.5" rx="9.8" ry="33.1"/>
		
			<ellipse transform="matrix(0.4289 -0.9033 0.9033 0.4289 -151.5848 309.2428)" class="st127" cx="168.8" cy="274.5" rx="9.7" ry="32.8"/>
		
			<ellipse transform="matrix(0.4289 -0.9033 0.9033 0.4289 -151.5848 309.2426)" class="st128" cx="168.8" cy="274.5" rx="9.6" ry="32.5"/>
		
			<ellipse transform="matrix(0.4289 -0.9033 0.9033 0.4289 -151.5848 309.2428)" class="st129" cx="168.8" cy="274.5" rx="9.5" ry="32.3"/>
		
			<ellipse transform="matrix(0.4289 -0.9033 0.9033 0.4289 -151.5848 309.2426)" class="st130" cx="168.8" cy="274.5" rx="9.5" ry="32"/>
		
			<ellipse transform="matrix(0.4289 -0.9033 0.9033 0.4289 -151.5847 309.2429)" class="st131" cx="168.8" cy="274.5" rx="9.4" ry="31.7"/>
		
			<ellipse transform="matrix(0.4289 -0.9033 0.9033 0.4289 -151.5848 309.2427)" class="st132" cx="168.8" cy="274.5" rx="9.3" ry="31.4"/>
		
			<ellipse transform="matrix(0.4289 -0.9033 0.9033 0.4289 -151.5847 309.2429)" class="st133" cx="168.8" cy="274.5" rx="9.2" ry="31.1"/>
		
			<ellipse transform="matrix(0.4289 -0.9033 0.9033 0.4289 -151.5848 309.2422)" class="st134" cx="168.8" cy="274.5" rx="9.1" ry="30.9"/>
		
			<ellipse transform="matrix(0.4289 -0.9033 0.9033 0.4289 -151.5847 309.243)" class="st135" cx="168.8" cy="274.5" rx="9" ry="30.6"/>
		
			<ellipse transform="matrix(0.4289 -0.9033 0.9033 0.4289 -151.5848 309.2425)" class="st136" cx="168.8" cy="274.5" rx="9" ry="30.3"/>
		
			<ellipse transform="matrix(0.4289 -0.9033 0.9033 0.4289 -151.5848 309.2425)" class="st137" cx="168.8" cy="274.5" rx="8.9" ry="30"/>
		
			<ellipse transform="matrix(0.4289 -0.9033 0.9033 0.4289 -151.5848 309.2428)" class="st138" cx="168.8" cy="274.5" rx="8.8" ry="29.7"/>
		
			<ellipse transform="matrix(0.4289 -0.9033 0.9033 0.4289 -151.5848 309.2426)" class="st139" cx="168.8" cy="274.5" rx="8.7" ry="29.5"/>
		
			<ellipse transform="matrix(0.4289 -0.9033 0.9033 0.4289 -151.5848 309.2428)" class="st140" cx="168.8" cy="274.5" rx="8.6" ry="29.2"/>
		
			<ellipse transform="matrix(0.4289 -0.9033 0.9033 0.4289 -151.5848 309.2426)" class="st141" cx="168.8" cy="274.5" rx="8.5" ry="28.9"/>
		
			<ellipse transform="matrix(0.4289 -0.9033 0.9033 0.4289 -151.5847 309.2428)" class="st142" cx="168.8" cy="274.5" rx="8.5" ry="28.6"/>
		
			<ellipse transform="matrix(0.4289 -0.9033 0.9033 0.4289 -151.5848 309.2426)" class="st143" cx="168.8" cy="274.5" rx="8.4" ry="28.4"/>
		
			<ellipse transform="matrix(0.4289 -0.9033 0.9033 0.4289 -151.5847 309.2429)" class="st144" cx="168.8" cy="274.5" rx="8.3" ry="28.1"/>
		
			<ellipse transform="matrix(0.4289 -0.9033 0.9033 0.4289 -151.5848 309.2427)" class="st145" cx="168.8" cy="274.5" rx="8.2" ry="27.8"/>
		
			<ellipse transform="matrix(0.4289 -0.9033 0.9033 0.4289 -151.5847 309.243)" class="st146" cx="168.8" cy="274.5" rx="8.1" ry="27.5"/>
		
			<ellipse transform="matrix(0.4289 -0.9033 0.9033 0.4289 -151.5848 309.2422)" class="st147" cx="168.8" cy="274.5" rx="8.1" ry="27.2"/>
		
			<ellipse transform="matrix(0.4289 -0.9033 0.9033 0.4289 -151.5847 309.243)" class="st148" cx="168.8" cy="274.5" rx="8" ry="27"/>
		
			<ellipse transform="matrix(0.4289 -0.9033 0.9033 0.4289 -151.5848 309.2425)" class="st149" cx="168.8" cy="274.5" rx="7.9" ry="26.7"/>
		
			<ellipse transform="matrix(0.4289 -0.9033 0.9033 0.4289 -151.5848 309.2425)" class="st150" cx="168.8" cy="274.5" rx="7.8" ry="26.4"/>
		
			<ellipse transform="matrix(0.4289 -0.9033 0.9033 0.4289 -151.5848 309.2428)" class="st151" cx="168.8" cy="274.5" rx="7.7" ry="26.1"/>
		
			<ellipse transform="matrix(0.4289 -0.9033 0.9033 0.4289 -151.5848 309.2425)" class="st152" cx="168.8" cy="274.5" rx="7.6" ry="25.9"/>
		
			<ellipse transform="matrix(0.4289 -0.9033 0.9033 0.4289 -151.5848 309.2428)" class="st153" cx="168.8" cy="274.5" rx="7.6" ry="25.6"/>
		
			<ellipse transform="matrix(0.4289 -0.9033 0.9033 0.4289 -151.5848 309.2426)" class="st154" cx="168.8" cy="274.5" rx="7.5" ry="25.3"/>
		
			<ellipse transform="matrix(0.4289 -0.9033 0.9033 0.4289 -151.5847 309.2428)" class="st155" cx="168.8" cy="274.5" rx="7.4" ry="25"/>
		
			<ellipse transform="matrix(0.4289 -0.9033 0.9033 0.4289 -151.5848 309.2426)" class="st156" cx="168.8" cy="274.5" rx="7.3" ry="24.7"/>
		
			<ellipse transform="matrix(0.4289 -0.9033 0.9033 0.4289 -151.5847 309.2429)" class="st157" cx="168.8" cy="274.5" rx="7.2" ry="24.5"/>
		
			<ellipse transform="matrix(0.4289 -0.9033 0.9033 0.4289 -151.5848 309.2426)" class="st158" cx="168.8" cy="274.5" rx="7.2" ry="24.2"/>
		
			<ellipse transform="matrix(0.4289 -0.9033 0.9033 0.4289 -151.5847 309.2429)" class="st159" cx="168.8" cy="274.5" rx="7.1" ry="23.9"/>
		
			<ellipse transform="matrix(0.4289 -0.9033 0.9033 0.4289 -151.5849 309.2421)" class="st160" cx="168.8" cy="274.5" rx="7" ry="23.6"/>
		
			<ellipse transform="matrix(0.4289 -0.9033 0.9033 0.4289 -151.5847 309.243)" class="st161" cx="168.8" cy="274.5" rx="6.9" ry="23.4"/>
		
			<ellipse transform="matrix(0.4289 -0.9033 0.9033 0.4289 -151.5848 309.2427)" class="st162" cx="168.8" cy="274.5" rx="6.8" ry="23.1"/>
		
			<ellipse transform="matrix(0.4289 -0.9033 0.9033 0.4289 -151.5848 309.2424)" class="st163" cx="168.8" cy="274.5" rx="6.7" ry="22.8"/>
		
			<ellipse transform="matrix(0.4289 -0.9033 0.9033 0.4289 -151.5848 309.2427)" class="st164" cx="168.8" cy="274.5" rx="6.7" ry="22.5"/>
		
			<ellipse transform="matrix(0.4289 -0.9033 0.9033 0.4289 -151.5848 309.2425)" class="st165" cx="168.8" cy="274.5" rx="6.6" ry="22.2"/>
		
			<ellipse transform="matrix(0.4289 -0.9033 0.9033 0.4289 -151.5847 309.2428)" class="st166" cx="168.8" cy="274.5" rx="6.5" ry="22"/>
		
			<ellipse transform="matrix(0.4289 -0.9033 0.9033 0.4289 -151.5848 309.2425)" class="st167" cx="168.8" cy="274.5" rx="6.4" ry="21.7"/>
		
			<ellipse transform="matrix(0.4289 -0.9033 0.9033 0.4289 -151.5847 309.2428)" class="st168" cx="168.8" cy="274.5" rx="6.3" ry="21.4"/>
		
			<ellipse transform="matrix(0.4289 -0.9033 0.9033 0.4289 -151.5848 309.2426)" class="st169" cx="168.8" cy="274.5" rx="6.2" ry="21.1"/>
		
			<ellipse transform="matrix(0.4289 -0.9033 0.9033 0.4289 -151.5847 309.2429)" class="st170" cx="168.8" cy="274.5" rx="6.2" ry="20.9"/>
		
			<ellipse transform="matrix(0.4289 -0.9033 0.9033 0.4289 -151.5848 309.2426)" class="st171" cx="168.8" cy="274.5" rx="6.1" ry="20.6"/>
		
			<ellipse transform="matrix(0.4289 -0.9033 0.9033 0.4289 -151.5847 309.243)" class="st172" cx="168.8" cy="274.5" rx="6" ry="20.3"/>
		
			<ellipse transform="matrix(0.4289 -0.9033 0.9033 0.4289 -151.5848 309.2423)" class="st173" cx="168.8" cy="274.5" rx="5.9" ry="20"/>
		
			<ellipse transform="matrix(0.4289 -0.9033 0.9033 0.4289 -151.5847 309.243)" class="st174" cx="168.8" cy="274.5" rx="5.8" ry="19.7"/>
		
			<ellipse transform="matrix(0.4289 -0.9033 0.9033 0.4289 -151.5848 309.2427)" class="st175" cx="168.8" cy="274.5" rx="5.8" ry="19.5"/>
		
			<ellipse transform="matrix(0.4289 -0.9033 0.9033 0.4289 -151.5848 309.2423)" class="st176" cx="168.8" cy="274.5" rx="5.7" ry="19.2"/>
		
			<ellipse transform="matrix(0.4289 -0.9033 0.9033 0.4289 -151.5848 309.2427)" class="st177" cx="168.8" cy="274.5" rx="5.6" ry="18.9"/>
		
			<ellipse transform="matrix(0.4289 -0.9033 0.9033 0.4289 -151.5848 309.2424)" class="st178" cx="168.8" cy="274.5" rx="5.5" ry="18.6"/>
		
			<ellipse transform="matrix(0.4289 -0.9033 0.9033 0.4289 -151.5847 309.2428)" class="st179" cx="168.8" cy="274.5" rx="5.4" ry="18.3"/>
		
			<ellipse transform="matrix(0.4289 -0.9033 0.9033 0.4289 -151.5848 309.2424)" class="st180" cx="168.8" cy="274.5" rx="5.3" ry="18.1"/>
		
			<ellipse transform="matrix(0.4289 -0.9033 0.9033 0.4289 -151.5847 309.2428)" class="st181" cx="168.8" cy="274.5" rx="5.3" ry="17.8"/>
		
			<ellipse transform="matrix(0.4289 -0.9033 0.9033 0.4289 -151.5848 309.2425)" class="st182" cx="168.8" cy="274.5" rx="5.2" ry="17.5"/>
		
			<ellipse transform="matrix(0.4289 -0.9033 0.9033 0.4289 -151.5847 309.2429)" class="st183" cx="168.8" cy="274.5" rx="5.1" ry="17.2"/>
		
			<ellipse transform="matrix(0.4289 -0.9033 0.9033 0.4289 -151.5848 309.2426)" class="st184" cx="168.8" cy="274.5" rx="5" ry="17"/>
		
			<ellipse transform="matrix(0.4289 -0.9033 0.9033 0.4289 -151.5847 309.243)" class="st185" cx="168.8" cy="274.5" rx="4.9" ry="16.7"/>
		
			<ellipse transform="matrix(0.4289 -0.9033 0.9033 0.4289 -151.5848 309.2426)" class="st186" cx="168.8" cy="274.5" rx="4.8" ry="16.4"/>
		
			<ellipse transform="matrix(0.4289 -0.9033 0.9033 0.4289 -151.5847 309.2431)" class="st187" cx="168.8" cy="274.5" rx="4.8" ry="16.1"/>
		
			<ellipse transform="matrix(0.4289 -0.9033 0.9033 0.4289 -151.5848 309.2426)" class="st188" cx="168.8" cy="274.5" rx="4.7" ry="15.8"/>
		
			<ellipse transform="matrix(0.4289 -0.9033 0.9033 0.4289 -151.5848 309.2422)" class="st189" cx="168.8" cy="274.5" rx="4.6" ry="15.6"/>
		
			<ellipse transform="matrix(0.4289 -0.9033 0.9033 0.4289 -151.5848 309.2427)" class="st190" cx="168.8" cy="274.5" rx="4.5" ry="15.3"/>
		
			<ellipse transform="matrix(0.4289 -0.9033 0.9033 0.4289 -151.5848 309.2423)" class="st191" cx="168.8" cy="274.5" rx="4.4" ry="15"/>
		
			<ellipse transform="matrix(0.4289 -0.9033 0.9033 0.4289 -151.5847 309.2428)" class="st192" cx="168.8" cy="274.5" rx="4.4" ry="14.7"/>
		
			<ellipse transform="matrix(0.4289 -0.9033 0.9033 0.4289 -151.5848 309.2423)" class="st193" cx="168.8" cy="274.5" rx="4.3" ry="14.5"/>
		
			<ellipse transform="matrix(0.4289 -0.9033 0.9033 0.4289 -151.5847 309.2429)" class="st194" cx="168.8" cy="274.5" rx="4.2" ry="14.2"/>
		
			<ellipse transform="matrix(0.4289 -0.9033 0.9033 0.4289 -151.5848 309.2424)" class="st195" cx="168.8" cy="274.5" rx="4.1" ry="13.9"/>
		
			<ellipse transform="matrix(0.4289 -0.9033 0.9033 0.4289 -151.5847 309.243)" class="st196" cx="168.8" cy="274.5" rx="4" ry="13.6"/>
		
			<ellipse transform="matrix(0.4289 -0.9033 0.9033 0.4289 -151.5848 309.243)" class="st197" cx="168.8" cy="274.5" rx="3.9" ry="13.3"/>
		
			<ellipse transform="matrix(0.4289 -0.9033 0.9033 0.4289 -151.5847 309.243)" class="st198" cx="168.8" cy="274.5" rx="3.9" ry="13.1"/>
		
			<ellipse transform="matrix(0.4289 -0.9033 0.9033 0.4289 -151.5848 309.2425)" class="st199" cx="168.8" cy="274.5" rx="3.8" ry="12.8"/>
		
			<ellipse transform="matrix(0.4289 -0.9033 0.9033 0.4289 -151.5847 309.2431)" class="st200" cx="168.8" cy="274.5" rx="3.7" ry="12.5"/>
		
			<ellipse transform="matrix(0.4289 -0.9033 0.9033 0.4289 -151.5848 309.2426)" class="st201" cx="168.8" cy="274.5" rx="3.6" ry="12.2"/>
		
			<ellipse transform="matrix(0.4289 -0.9033 0.9033 0.4289 -151.5849 309.2421)" class="st202" cx="168.8" cy="274.5" rx="3.5" ry="12"/>
		
			<ellipse transform="matrix(0.4289 -0.9033 0.9033 0.4289 -151.5848 309.2426)" class="st203" cx="168.8" cy="274.5" rx="3.5" ry="11.7"/>
		
			<ellipse transform="matrix(0.4289 -0.9033 0.9033 0.4289 -151.5849 309.2421)" class="st204" cx="168.8" cy="274.5" rx="3.4" ry="11.4"/>
		
			<ellipse transform="matrix(0.4289 -0.9033 0.9033 0.4289 -151.5847 309.2428)" class="st205" cx="168.8" cy="274.5" rx="3.3" ry="11.1"/>
		
			<ellipse transform="matrix(0.4289 -0.9033 0.9033 0.4289 -151.5849 309.2422)" class="st206" cx="168.8" cy="274.5" rx="3.2" ry="10.8"/>
		
			<ellipse transform="matrix(0.4289 -0.9033 0.9033 0.4289 -151.5847 309.2429)" class="st207" cx="168.8" cy="274.5" rx="3.1" ry="10.6"/>
		
			<ellipse transform="matrix(0.4289 -0.9033 0.9033 0.4289 -151.5849 309.2423)" class="st208" cx="168.8" cy="274.5" rx="3" ry="10.3"/>
		
			<ellipse transform="matrix(0.4289 -0.9033 0.9033 0.4289 -151.5847 309.243)" class="st209" cx="168.8" cy="274.5" rx="3" ry="10"/>
		
			<ellipse transform="matrix(0.4289 -0.9033 0.9033 0.4289 -151.5847 309.2438)" class="st210" cx="168.8" cy="274.5" rx="2.9" ry="9.7"/>
		
			<ellipse transform="matrix(0.4289 -0.9033 0.9033 0.4289 -151.5847 309.2431)" class="st211" cx="168.8" cy="274.5" rx="2.8" ry="9.5"/>
		
			<ellipse transform="matrix(0.4289 -0.9033 0.9033 0.4289 -151.5848 309.2424)" class="st212" cx="168.8" cy="274.5" rx="2.7" ry="9.2"/>
		
			<ellipse transform="matrix(0.4289 -0.9033 0.9033 0.4289 -151.5847 309.2433)" class="st213" cx="168.8" cy="274.5" rx="2.6" ry="8.9"/>
		
			<ellipse transform="matrix(0.4289 -0.9033 0.9033 0.4289 -151.5848 309.2425)" class="st214" cx="168.8" cy="274.5" rx="2.5" ry="8.6"/>
		
			<ellipse transform="matrix(0.4289 -0.9033 0.9033 0.4289 -151.5849 309.2417)" class="st215" cx="168.8" cy="274.5" rx="2.5" ry="8.3"/>
		
			<ellipse transform="matrix(0.4289 -0.9033 0.9033 0.4289 -151.5848 309.2426)" class="st216" cx="168.8" cy="274.5" rx="2.4" ry="8.1"/>
		
			<ellipse transform="matrix(0.4289 -0.9033 0.9033 0.4289 -151.5849 309.2418)" class="st217" cx="168.8" cy="274.5" rx="2.3" ry="7.8"/>
		
			<ellipse transform="matrix(0.4289 -0.9033 0.9033 0.4289 -151.5848 309.2427)" class="st218" cx="168.8" cy="274.5" rx="2.2" ry="7.5"/>
		
			<ellipse transform="matrix(0.4289 -0.9033 0.9033 0.4289 -151.5849 309.2419)" class="st219" cx="168.8" cy="274.5" rx="2.1" ry="7.2"/>
		
			<ellipse transform="matrix(0.4289 -0.9033 0.9033 0.4289 -151.5847 309.2429)" class="st220" cx="168.8" cy="274.5" rx="2.1" ry="7"/>
		
			<ellipse transform="matrix(0.4289 -0.9033 0.9033 0.4289 -151.5848 309.243)" class="st221" cx="168.8" cy="274.5" rx="2" ry="6.7"/>
		
			<ellipse transform="matrix(0.4289 -0.9033 0.9033 0.4289 -151.5847 309.2431)" class="st222" cx="168.8" cy="274.5" rx="1.9" ry="6.4"/>
		
			<ellipse transform="matrix(0.4289 -0.9033 0.9033 0.4289 -151.5846 309.2444)" class="st223" cx="168.8" cy="274.5" rx="1.8" ry="6.1"/>
		
			<ellipse transform="matrix(0.4289 -0.9033 0.9033 0.4289 -151.5847 309.2433)" class="st224" cx="168.8" cy="274.5" rx="1.7" ry="5.8"/>
		
			<ellipse transform="matrix(0.4289 -0.9033 0.9033 0.4289 -151.5849 309.2421)" class="st225" cx="168.8" cy="274.5" rx="1.6" ry="5.6"/>
		
			<ellipse transform="matrix(0.4289 -0.9033 0.9033 0.4289 -151.5847 309.2436)" class="st226" cx="168.8" cy="274.5" rx="1.6" ry="5.3"/>
		
			<ellipse transform="matrix(0.4289 -0.9033 0.9033 0.4289 -151.5848 309.2422)" class="st227" cx="168.8" cy="274.5" rx="1.5" ry="5"/>
		
			<ellipse transform="matrix(0.4289 -0.9033 0.9033 0.4289 -151.585 309.2409)" class="st228" cx="168.8" cy="274.5" rx="1.4" ry="4.7"/>
		
			<ellipse transform="matrix(0.4289 -0.9033 0.9033 0.4289 -151.5848 309.2424)" class="st229" cx="168.8" cy="274.5" rx="1.3" ry="4.4"/>
		
			<ellipse transform="matrix(0.4289 -0.9033 0.9033 0.4289 -151.585 309.2409)" class="st230" cx="168.8" cy="274.5" rx="1.2" ry="4.2"/>
		
			<ellipse transform="matrix(0.4289 -0.9033 0.9033 0.4289 -151.5848 309.2426)" class="st231" cx="168.8" cy="274.5" rx="1.2" ry="3.9"/>
		
			<ellipse transform="matrix(0.4289 -0.9033 0.9033 0.4289 -151.585 309.2409)" class="st232" cx="168.8" cy="274.5" rx="1.1" ry="3.6"/>
		
			<ellipse transform="matrix(0.4289 -0.9033 0.9033 0.4289 -151.5847 309.243)" class="st233" cx="168.8" cy="274.5" rx="1" ry="3.3"/>
		
			<ellipse transform="matrix(0.4289 -0.9033 0.9033 0.4289 -151.5845 309.2455)" class="st234" cx="168.8" cy="274.5" rx="0.9" ry="3.1"/>
		
			<ellipse transform="matrix(0.4289 -0.9033 0.9033 0.4289 -151.5847 309.2434)" class="st235" cx="168.8" cy="274.5" rx="0.8" ry="2.8"/>
		
			<ellipse transform="matrix(0.4289 -0.9033 0.9033 0.4289 -151.5844 309.2465)" class="st236" cx="168.8" cy="274.5" rx="0.7" ry="2.5"/>
		
			<ellipse transform="matrix(0.4289 -0.9033 0.9033 0.4289 -151.5846 309.2441)" class="st237" cx="168.8" cy="274.5" rx="0.7" ry="2.2"/>
		
			<ellipse transform="matrix(0.4289 -0.9033 0.9033 0.4289 -151.585 309.2407)" class="st238" cx="168.8" cy="274.5" rx="0.6" ry="1.9"/>
		
			<ellipse transform="matrix(0.4289 -0.9033 0.9033 0.4289 -151.5845 309.2453)" class="st239" cx="168.8" cy="274.5" rx="0.5" ry="1.7"/>
		
			<ellipse transform="matrix(0.4289 -0.9033 0.9033 0.4289 -151.585 309.2407)" class="st240" cx="168.8" cy="274.5" rx="0.4" ry="1.4"/>
		
			<ellipse transform="matrix(0.4289 -0.9033 0.9033 0.4289 -151.5857 309.2346)" class="st241" cx="168.8" cy="274.5" rx="0.3" ry="1.1"/>
		
			<ellipse transform="matrix(0.4289 -0.9033 0.9033 0.4289 -151.585 309.2407)" class="st242" cx="168.8" cy="274.5" rx="0.2" ry="0.8"/>
		
			<ellipse transform="matrix(0.429 -0.9033 0.9033 0.429 -151.5864 309.2284)" class="st243" cx="168.8" cy="274.5" rx="0.2" ry="0.6"/>
		
			<ellipse transform="matrix(0.4289 -0.9033 0.9033 0.4289 -151.585 309.2407)" class="st244" cx="168.8" cy="274.5" rx="0.1" ry="0.3"/>
	</g>
</g>
<g>
	<path class="st245" d="M308.6,158.1l-141.3,81.6c-2.8,1.6-7.1,1.8-9.6,0.4l-86.5-50c-2.5-1.4-2.1-3.9,0.7-5.5L213.2,103
		c2.8-1.6,7.1-1.8,9.6-0.4l86.5,50C311.8,154,311.5,156.5,308.6,158.1z"/>
	<path class="st246" d="M293.8,159.8l-123.6,71.4c-2.5,1.4-6.2,1.6-8.4,0.3l-75.7-43.7c-2.1-1.2-1.9-3.4,0.6-4.8l123.6-71.4
		c2.5-1.4,6.2-1.6,8.4-0.3l75.7,43.7C296.6,156.2,296.3,158.3,293.8,159.8z"/>
	<path class="st2" d="M161.9,241.6c-1.7,0-3.2-0.3-4.4-1l-86.5-50c-1.2-0.7-1.9-1.7-1.9-2.8c0-1.3,0.9-2.6,2.6-3.6L213,102.6
		c3-1.7,7.5-1.9,10.1-0.4l86.5,50c1.2,0.7,1.9,1.7,1.9,2.8c0,1.3-0.9,2.6-2.6,3.6l-141.3,81.6C166,241.1,163.9,241.6,161.9,241.6z
		 M218.6,102.2c-1.8,0-3.7,0.4-5.2,1.3L72.2,185.1c-1.3,0.8-2.1,1.8-2.1,2.7c0,0.7,0.5,1.4,1.4,2l86.5,50c2.3,1.3,6.4,1.2,9.1-0.4
		l141.3-81.6c1.3-0.8,2.1-1.8,2.1-2.7c0-0.7-0.5-1.4-1.4-2l-86.5-50C221.5,102.5,220.1,102.2,218.6,102.2z"/>
	<path class="st2" d="M311,134.3l-1.6,1.2c0,0-0.1,0-0.1-0.1l-86.5-50c-2.5-1.4-6.7-1.2-9.6,0.4L71.9,167.5
		c-0.3,0.2-0.6,0.4-0.9,0.6l-1.5-1.1v3.5l0,0c0,0.9,0.5,1.8,1.7,2.5l86.5,50c2.5,1.4,6.7,1.2,9.6-0.4L308.6,141
		c1.6-0.9,2.3-2,2.3-3.1l0,0V134.3z"/>
	<path class="st247" d="M308.6,137.4L167.3,219c-2.8,1.6-7.1,1.8-9.6,0.4l-86.5-50c-2.5-1.4-2.1-3.9,0.7-5.5l141.3-81.6
		c2.8-1.6,7.1-1.8,9.6-0.4l86.5,50C311.8,133.3,311.5,135.8,308.6,137.4z"/>
	<g>
		<path class="st2" d="M197,121.4l-12.2-7l3-1.7c0.6-0.3,1.1-0.6,1.6-0.8c0.5-0.2,1.1-0.3,1.6-0.4c0.6-0.1,1.1,0,1.7,0.1
			c0.6,0.1,1.2,0.4,1.7,0.7c1.5,0.9,1.7,1.7,0.7,2.5c0.9-0.3,1.7-0.5,2.5-0.4c0.8,0.1,1.7,0.4,2.6,0.9c1.2,0.7,1.7,1.3,1.8,2
			c0,0.7-0.5,1.3-1.6,2L197,121.4z M192,115.9l0.7-0.4c0.7-0.4,1-0.7,0.9-1c0-0.3-0.4-0.6-1-1c-0.3-0.2-0.7-0.3-1-0.4
			c-0.3-0.1-0.6-0.1-0.9,0c-0.3,0-0.6,0.1-0.8,0.2c-0.3,0.1-0.6,0.3-1,0.5l-0.3,0.2L192,115.9z M197.7,119.2l0.8-0.5
			c0.7-0.4,1-0.7,0.9-1.1c-0.1-0.3-0.4-0.7-1.1-1.1c-0.7-0.4-1.4-0.6-2-0.7c-0.6,0-1.3,0.2-1.9,0.5l-0.7,0.4L197.7,119.2z"/>
		<path class="st2" d="M204.7,116.9l-9.7-8.4l2.3-1.3l14.6,5.6l-2.1,1.2l-3.3-1.3l-2.1,1.2l2.3,1.9L204.7,116.9z M203.3,112.8
			l1.6-0.9l-5.8-2.4L203.3,112.8z"/>
		<path class="st2" d="M213.2,112l-12.2-7l1.5-0.9l9.9,2.3l-6.9-4l1.8-1.1l12.2,7l-1.5,0.8l-10.2-2.4l7.2,4.2L213.2,112z"/>
		<path class="st2" d="M221.3,107.3l-12.2-7l2.2-1.3l5.3,3l-2.9-4.4l2.1-1.2l3.1,4.5l9.3,2.4l-2.2,1.3l-7.8-2.1l0.4,0.7l4.9,2.8
			L221.3,107.3z"/>
	</g>
	<g>
		<polygon class="st2" points="183.9,189 156.8,204.7 153.7,202.8 180.8,187.2 		"/>
		<polygon class="st2" points="217.2,169.8 190.1,185.4 187,183.6 214.1,168 		"/>
		<polygon class="st2" points="250.5,150.6 223.4,166.2 220.3,164.4 247.4,148.8 		"/>
		<polygon class="st2" points="283.8,131.4 256.7,147 253.6,145.2 280.7,129.5 		"/>
	</g>
</g>
<g>
	<g>
		<path class="st2" d="M305.7,239.8l-43.5-25.3c-8.6-5-16.7-5.8-22.9-2.2c-6.1,3.5-9.5,11-9.5,20.9v3.2c0.3,0.2,0.6,0.4,1,0.6v-3.8
			c0-9.6,3.2-16.7,9-20.1c5.8-3.4,13.6-2.6,21.9,2.2l43.5,25.3c0.2,0.1,0.5,0.1,0.7-0.2C306,240.2,305.9,239.9,305.7,239.8z"/>
		<path class="st2" d="M170.1,209.6v-98c0-19.6-13.8-43.5-30.8-53.3c-8.3-4.8-16.2-5.6-22.1-2.1c-5.9,3.4-9.2,10.6-9.2,20.2v6.8
			c0.3,0.3,0.6,0.6,1,1v-7.8c0-9.2,3.1-16.1,8.7-19.4c5.6-3.2,13.1-2.5,21.1,2.1c16.7,9.7,30.3,33.2,30.3,52.5v98
			c0,16.3,9.6,35.5,22.5,47.1c0-0.4,0-0.9,0-1.3C179.2,244,170.1,225.4,170.1,209.6z"/>
		<g>
			<path class="st2" d="M191.8,256.3c0,0-11.1-11.3-15.4-20.6c-4.3-9.3-6.5-17.9-6.6-25.6c-0.1-7.7-0.2-73.6-0.2-73.6
				s0.5-27.3-0.7-31.7s-3.9-27.3-26.4-43.9c-22.6-16.5-33.8,1.3-33.7,10.6c0.1,9.3,0,15.3,0,15.3s12.4,10,17,24.3
				c4.7,14.3,5.1,11.8,5.2,26c0.1,14.2,0.2,86.3,0.2,86.3s-1,12.7,2.1,22.5s8.8,20.7,15.5,27.8c6.7,7.1,16.6,15.5,25.8,14.7
				c9.2-0.8,15.3-4.2,17.1-18.7V256.3z"/>
			<polygon class="st2" points="117.2,56.2 79.2,78.1 108.8,86.9 			"/>
			<path class="st0" d="M229.8,236.3v4.4c-2.1-1.5-12.1-8.3-21.5-8c-10.6,0.4-14.2,10.1-14.2,10.1s-2.5,7.3-2.3,10.7
				c0,0.6,0.1,1.3,0.1,2c-0.1-0.1-0.1-0.1-0.2-0.2c0,0.4,0,0.9,0,1.3c0.1,0.1,0.1,0.1,0.2,0.2c0.1,3.3,0.1,6.9,0.1,6.9
				s0.1,6.5-0.8,10.8c-1.7,7.7-8.1,12-8.6,12.7l39-22.5c0,0,0.1,0,0.1-0.1c0.1,0,0.1-0.1,0.2-0.1l0.2-0.1l0,0
				c5.6-3.5,8.7-10.5,8.7-19.8V237C230.4,236.8,230.1,236.6,229.8,236.3z"/>
			<path class="st2" d="M199.4,235.4l39.9-23.1c0,0,6.8-3.6,15-0.6c8.2,3,51.4,28.9,51.4,28.9l-38.5,22.2c0,0-44.8-27.7-50-29.1
				C206.4,230.8,199.4,235.4,199.4,235.4z"/>
		</g>
		<path class="st0" d="M108,86.2L108,86.2c-1.6-1.5-8.9-8-19.6-9.6c-12.1-1.9-17.1,12.3-17.1,12.3s-1.4,7.4-1.4,11.7
			c0.1,4.4,0.4,20.2,0.4,20.2l38.5-22.1l0,0c0.2-0.1,0.3-0.2,0.3-0.4V87C108.7,86.7,108.3,86.5,108,86.2z"/>
		<g>
			<path class="st1" d="M175,289c-4.2,0-8.9-1.4-13.8-4.2c-16.9-9.7-30.6-33.5-30.6-53v-98c0-19.3-13.6-42.9-30.3-52.5
				c-8-4.6-15.5-5.4-21.1-2.1c-5.6,3.2-8.7,10.1-8.7,19.4v21.9c0,0.3-0.2,0.5-0.5,0.5s-0.5-0.2-0.5-0.5V98.5
				c0-9.6,3.3-16.8,9.2-20.2c5.9-3.4,13.8-2.7,22.1,2.1c17,9.8,30.8,33.7,30.8,53.3v98c0,19.2,13.5,42.5,30.1,52.1
				c7.9,4.6,15.4,5.3,21,2.1c5.6-3.2,8.6-10,8.6-19.2v-11.5c0-9.9,3.4-17.4,9.5-20.9c6.1-3.5,14.3-2.8,22.9,2.2l43.5,25.3
				c0.2,0.1,0.3,0.4,0.2,0.7c-0.1,0.2-0.4,0.3-0.7,0.2l-43.5-25.3c-8.3-4.8-16.1-5.6-21.9-2.2c-5.8,3.4-9,10.5-9,20.1v11.5
				c0,9.5-3.2,16.7-9.1,20.1C180.7,288.3,178,289,175,289z"/>
		</g>
	</g>
	<g>
		<g>
			<polygon class="st248" points="141,155.3 141,151.9 145,149.6 145,153 			"/>
			<polygon class="st248" points="152.4,142.3 152.4,138.8 160.1,134.4 160.1,137.9 			"/>
			<polygon class="st248" points="141.4,141.6 141.4,138.1 160.1,127.3 160.1,130.8 			"/>
			<polygon class="st248" points="147.9,151.4 147.9,147.9 163.5,138.9 163.5,142.4 			"/>
			<polygon class="st248" points="141.4,148.7 141.4,145.2 149.1,140.8 149.1,144.2 			"/>
		</g>
		<g>
			<polygon class="st248" points="145.9,189 145.9,192.4 141.2,195.2 141.2,191.7 			"/>
			<polygon class="st248" points="154.5,184 154.5,187.5 149.8,190.2 149.8,186.8 			"/>
			<polygon class="st248" points="159.7,174.6 159.7,178 141.4,188.6 141.4,185.1 			"/>
			<polygon class="st248" points="150.6,163.6 150.6,160.2 159.7,154.9 159.7,158.4 			"/>
			<polygon class="st248" points="141.2,169 141.2,165.6 145.9,162.9 145.9,166.3 			"/>
			<polygon class="st248" points="141.2,175.5 141.2,172.1 150.2,166.9 150.2,170.3 			"/>
			<polygon class="st248" points="153.8,168.2 153.8,164.8 159.7,161.4 159.7,164.8 			"/>
			<polygon class="st248" points="150.6,203.9 150.6,200.4 159.7,195.2 159.7,198.6 			"/>
			<polygon class="st248" points="141.2,209.3 141.2,205.9 145.9,203.1 145.9,206.6 			"/>
			<polygon class="st248" points="141.2,215.8 141.2,212.3 150.2,207.1 150.2,210.6 			"/>
			<polygon class="st248" points="153.8,208.5 153.8,205 159.7,201.6 159.7,205.1 			"/>
		</g>
		<g>
			<polygon class="st248" points="249.6,240.8 246.6,239.1 250.7,236.7 253.6,238.5 			"/>
			<polygon class="st248" points="255.4,231 252.4,229.3 260.1,224.8 263.1,226.6 			"/>
			<polygon class="st248" points="238.3,233.8 235.3,232.1 254,221.3 257,223 			"/>
			<polygon class="st248" points="256.5,236.8 253.5,235.1 269.1,226.1 272.1,227.8 			"/>
			<polygon class="st248" points="244.4,237.3 241.4,235.6 249.1,231.2 252.1,232.9 			"/>
		</g>
	</g>
</g>
<g>
	<polygon class="st2" points="45.4,248.7 43.6,249.7 39.5,247.3 41.2,246.3 	"/>
	<polygon class="st2" points="48.6,246.8 46.9,247.8 42.7,245.4 44.5,244.4 	"/>
	<polygon class="st2" points="51.8,244.9 50.1,245.9 45.9,243.6 47.7,242.5 	"/>
	<polygon class="st2" points="55.1,243.1 53.3,244.1 49.2,241.7 50.9,240.7 	"/>
</g>
<g>
	<path class="st2" d="M282.6,302.8l-30.8-17.8c-0.7-0.4-1.7-0.7-2.6-0.7l0,0c0,0-0.1,0-0.1,0c-0.2,0-0.4,0-0.6,0c-0.1,0-0.2,0-0.2,0
		c-0.2,0-0.4,0-0.5,0.1c-0.1,0-0.2,0-0.2,0c-0.2,0-0.4,0.1-0.5,0.1c-0.1,0-0.1,0-0.2,0.1c-0.2,0.1-0.4,0.2-0.6,0.3l-23,13.3h0
		L201.1,311l-2.1,0.2l0,1.9l0,0.2c0.1,0.5,0.5,1.1,1.3,1.5l30.9,17.8c0.7,0.4,1.7,0.7,2.6,0.7l0,0c0,0,0.1,0,0.1,0
		c0.2,0,0.4,0,0.6,0c0.1,0,0.2,0,0.2,0c0.2,0,0.4,0,0.5-0.1c0.1,0,0.2,0,0.2,0c0.2,0,0.4-0.1,0.5-0.1c0.1,0,0.1,0,0.2-0.1
		c0.2-0.1,0.4-0.2,0.6-0.3l0,0l46-26.7c0.7-0.4,1.1-1,1.1-1.6l0,0v-0.1c0,0,0,0,0,0v-1.8L282.6,302.8z"/>
	<g>
		<path class="st1" d="M200,309.7l23-13.3l35.8,20.6l-22,13.9c-1.5,0.9-4.1,0.8-5.7-0.1L200.2,313C198.6,312,198.5,310.6,200,309.7z
			"/>
		<path class="st1" d="M246,283l-23,13.3l35.5,20.5l24.2-12.6c1.5-0.9,1.4-2.3-0.2-3.3l-30.9-17.8C250.1,282.2,247.5,282.2,246,283z
			"/>
		<path class="st1" d="M283.8,302.5c0.1,0.6-0.2,1.3-1,1.8l-46,26.7c-0.8,0.5-1.9,0.7-3,0.6l3.1-27.2L283.8,302.5z"/>
		<path class="st1" d="M199,311.5c-0.1-0.6,0.2-1.3,1-1.8l46-26.7c0.8-0.5,1.9-0.7,3-0.6l-3.1,27.2L199,311.5z"/>
	</g>
	<path class="st2" d="M234.1,319.9c-0.1,0-0.2,0-0.2,0l-0.6,0c-0.9-0.1-1.7-0.4-2.4-0.7L200,301.3c-0.7-0.4-1.2-0.9-1.4-1.5h0
		l-0.1-0.5l0-0.1c0-0.1,0-0.2,0-0.4c0-0.1,0-0.1,0-0.2c0-0.2,0.1-0.3,0.2-0.4c0-0.1,0.1-0.1,0.1-0.2c0.1-0.1,0.2-0.3,0.3-0.4
		c0-0.1,0.1-0.1,0.1-0.1c0.2-0.2,0.4-0.3,0.6-0.4l46-26.7c0.2-0.1,0.5-0.2,0.7-0.3c0,0,0.1,0,0.2,0c0.3-0.1,0.4-0.1,0.6-0.2
		c0.1,0,0.1,0,0.2,0c0.3,0,0.5-0.1,0.7-0.1l0.2,0c0.3,0,0.5,0,0.7,0l0.5,0c0.9,0.1,1.7,0.4,2.4,0.7l30.9,17.8
		c0.7,0.4,1.1,0.9,1.4,1.4l0.1,0l0.1,0.5l0,0.1c0,0.2,0,0.3,0,0.4c0,0.1,0,0.1,0,0.2c0,0.2-0.1,0.3-0.2,0.4c0,0.1-0.1,0.1-0.1,0.2
		c-0.1,0.2-0.2,0.3-0.3,0.4l-0.1,0.1c-0.2,0.2-0.4,0.3-0.6,0.4l-46,26.6l-0.1,0.1l-0.1,0c-0.2,0.1-0.4,0.2-0.6,0.3
		c-0.1,0-0.1,0-0.2,0c-0.3,0.1-0.4,0.1-0.6,0.2l-0.2,0c-0.3,0-0.5,0.1-0.7,0.1c-0.1,0-0.1,0-0.2,0
		C234.3,319.9,234.2,319.9,234.1,319.9z M233.9,318.9c0.1,0,0.3,0,0.4,0l0.2,0c0.2,0,0.3,0,0.5-0.1l0.2,0c0.2,0,0.3-0.1,0.5-0.1
		l0.1,0c0.3-0.1,0.4-0.2,0.6-0.3l0,0l46-26.7c0.2-0.1,0.3-0.2,0.4-0.3l0.1-0.1c0.1-0.1,0.1-0.2,0.2-0.2l0-0.1c0-0.1,0.1-0.1,0.1-0.2
		c0-0.2,0-0.2,0-0.3l0-0.1c-0.1-0.4-0.4-0.8-1-1.2l-30.9-17.8c-0.6-0.4-1.5-0.6-2.4-0.7l-0.2,0c-0.2,0-0.3,0-0.4,0l-0.2,0
		c-0.2,0-0.3,0-0.5,0.1l-0.2,0c-0.2,0-0.3,0.1-0.5,0.1l-0.1,0c-0.3,0.1-0.5,0.2-0.6,0.3l-46,26.7c-0.2,0.1-0.3,0.2-0.4,0.3l-0.1,0.1
		c-0.1,0.1-0.1,0.2-0.2,0.2c-0.1,0.2-0.1,0.2-0.1,0.3c0,0.1,0,0.2,0,0.3l0,0.1c0.1,0.4,0.4,0.8,1,1.2l30.9,17.8
		c0.6,0.4,1.5,0.6,2.4,0.7L233.9,318.9z"/>
	<path class="st245" d="M283.4,291.6c0.1-0.1,0.2-0.2,0.2-0.3c0,0,0-0.1,0.1-0.1c0-0.1,0.1-0.2,0.1-0.3c0,0,0-0.1,0-0.1
		c0-0.1,0-0.2,0-0.3c0,0,0,0,0-0.1l0,0c-0.1-0.5-0.5-1.1-1.3-1.5L251.7,271c-0.7-0.4-1.7-0.7-2.6-0.7l0,0c0,0-0.1,0-0.1,0
		c-0.2,0-0.4,0-0.6,0c-0.1,0-0.2,0-0.2,0c-0.2,0-0.4,0-0.5,0.1c-0.1,0-0.2,0-0.2,0c-0.2,0-0.3,0.1-0.5,0.1c-0.1,0-0.1,0-0.2,0.1
		c-0.2,0.1-0.4,0.2-0.6,0.3l-15.3,8.9l-7.7,4.4l0,0l-23,13.3c-0.2,0.1-0.4,0.2-0.5,0.4c0,0-0.1,0.1-0.1,0.1
		c-0.1,0.1-0.2,0.2-0.2,0.3c0,0,0,0.1-0.1,0.1c0,0.1-0.1,0.2-0.1,0.3c0,0,0,0.1,0,0.1c0,0.1,0,0.2,0,0.3c0,0,0,0,0,0.1l0,0
		c0.1,0.5,0.5,1.1,1.3,1.5l30.9,17.8c0.7,0.4,1.7,0.7,2.6,0.7l0,0c0,0,0.1,0,0.1,0c0.2,0,0.4,0,0.6,0c0.1,0,0.2,0,0.2,0
		c0.2,0,0.4,0,0.5-0.1c0.1,0,0.2,0,0.2,0c0.2,0,0.3-0.1,0.5-0.1c0.1,0,0.1,0,0.2-0.1c0.2-0.1,0.4-0.2,0.6-0.3c0,0,0,0,0,0l46-26.7
		c0.2-0.1,0.4-0.2,0.5-0.4C283.3,291.7,283.4,291.7,283.4,291.6z"/>
</g>
</svg>
