<?xml version="1.0" encoding="utf-8"?>
<!-- Generator: Adobe Illustrator 21.0.0, SVG Export Plug-In . SVG Version: 6.00 Build 0)  -->
<svg version="1.1" id="Objects" xmlns="http://www.w3.org/2000/svg" xmlns:xlink="http://www.w3.org/1999/xlink" x="0px" y="0px"
	 viewBox="0 0 500 500" style="enable-background:new 0 0 500 500;" xml:space="preserve">
<style type="text/css">
	.st0{fill:#FEC3AC;}
	.st1{fill:#FFFFFF;}
	.st2{fill:#EA3970;}
	.st3{fill:url(#SVGID_1_);}
	.st4{fill:#E3F1FC;}
	.st5{fill:url(#SVGID_2_);}
	.st6{fill:#546E7A;}
	.st7{fill:#37474F;}
	.st8{fill:none;stroke:#455A64;stroke-width:0.86;stroke-linecap:round;stroke-miterlimit:10;}
</style>
<title>Artboard 2</title>
<circle class="st0" cx="234.4" cy="235.6" r="114.2"/>
<path class="st1" d="M178.9,200.6v-0.9c0-0.5-0.4-0.8-0.8-0.8l0,0l0,0c-0.5,0-0.8,0.4-0.8,0.8l0,0v0.9c0,0.5-0.4,0.8-0.8,0.8l0,0
	h-0.9c-0.5,0-0.8,0.4-0.8,0.8l0,0l0,0c0,0.5,0.4,0.8,0.8,0.8l0,0h0.9c0.5,0,0.8,0.4,0.8,0.8l0,0v0.9c0,0.5,0.4,0.8,0.8,0.8l0,0l0,0
	c0.5,0,0.8-0.4,0.8-0.8l0,0v-0.9c0-0.5,0.4-0.8,0.8-0.8l0,0h0.9c0.5,0,0.8-0.4,0.8-0.8l0,0l0,0c0-0.5-0.4-0.8-0.8-0.8l0,0h-0.9
	C179.3,201.4,178.9,201,178.9,200.6L178.9,200.6z"/>
<path class="st1" d="M149,236.6V236c0-0.3-0.2-0.5-0.5-0.5l0,0c-0.3,0-0.5,0.2-0.5,0.5v0.6c0,0.3-0.2,0.5-0.5,0.5h-0.6
	c-0.3,0-0.5,0.2-0.5,0.5l0,0c0,0.3,0.2,0.5,0.5,0.5h0.6c0.3,0,0.5,0.2,0.5,0.5v0.6c0,0.3,0.2,0.5,0.5,0.5l0,0c0.3,0,0.5-0.2,0.5-0.5
	v-0.6c0-0.3,0.2-0.5,0.5-0.5h0.6c0.3,0,0.5-0.2,0.5-0.5l0,0c0-0.3-0.2-0.5-0.5-0.5h-0.6C149.3,237.1,149,236.9,149,236.6z"/>
<path class="st1" d="M277.1,217.5V217c0-0.3-0.2-0.5-0.5-0.5l0,0l0,0c-0.3,0-0.5,0.2-0.5,0.5l0,0v0.6c0,0.3-0.2,0.5-0.5,0.5l0,0H275
	c-0.3,0-0.5,0.2-0.5,0.5l0,0l0,0c0,0.3,0.2,0.5,0.5,0.5l0,0h0.6c0.3,0,0.5,0.2,0.5,0.5l0,0v0.6c0,0.3,0.2,0.5,0.5,0.5l0,0l0,0
	c0.3,0,0.5-0.2,0.5-0.5l0,0v-0.6c0-0.3,0.2-0.5,0.5-0.5l0,0h0.6c0.3,0,0.5-0.2,0.5-0.5l0,0l0,0c0-0.3-0.2-0.5-0.5-0.5l0,0h-0.6
	C277.4,218.1,277.1,217.9,277.1,217.5C277.1,217.6,277.1,217.6,277.1,217.5z"/>
<path class="st1" d="M162.9,273v-0.5c0-0.2-0.2-0.4-0.4-0.4l0,0l0,0c-0.2,0-0.4,0.2-0.4,0.4l0,0v0.5c0,0.2-0.2,0.4-0.4,0.4l0,0h-0.5
	c-0.2,0-0.4,0.2-0.4,0.4l0,0l0,0c0,0.2,0.2,0.4,0.4,0.4l0,0h0.5c0.2,0,0.4,0.2,0.4,0.4l0,0v0.5c0,0.2,0.2,0.4,0.4,0.4l0,0l0,0
	c0.2,0,0.4-0.2,0.4-0.4l0,0v-0.5c0-0.2,0.2-0.4,0.4-0.4l0,0h0.5c0.2,0,0.4-0.2,0.4-0.4l0,0l0,0c0-0.2-0.2-0.4-0.4-0.4l0,0h-0.5
	C163.1,273.5,162.9,273.3,162.9,273L162.9,273z"/>
<path class="st1" d="M289.5,249.3v-0.5c0-0.2-0.2-0.4-0.4-0.4l0,0l0,0c-0.2,0-0.4,0.2-0.4,0.4l0,0v0.5c0,0.2-0.2,0.4-0.4,0.4l0,0
	h-0.5c-0.2,0-0.4,0.2-0.4,0.4l0,0l0,0c0,0.2,0.2,0.4,0.4,0.4l0,0h0.5c0.2,0,0.4,0.2,0.4,0.4l0,0v0.5c0,0.2,0.2,0.4,0.4,0.4l0,0l0,0
	c0.2,0,0.4-0.2,0.4-0.4l0,0v-0.5c0-0.2,0.2-0.4,0.4-0.4l0,0h0.5c0.2,0,0.4-0.2,0.4-0.4l0,0l0,0c0-0.2-0.2-0.4-0.4-0.4l0,0h-0.5
	C289.7,249.8,289.5,249.6,289.5,249.3L289.5,249.3z"/>
<circle class="st1" cx="170.9" cy="251.4" r="1.6"/>
<circle class="st1" cx="294.3" cy="206.7" r="1.6"/>
<circle class="st1" cx="177.9" cy="230.2" r="0.9"/>
<circle class="st1" cx="158.8" cy="218.5" r="1.1"/>
<circle class="st1" cx="273.1" cy="240.1" r="1.1"/>
<circle class="st2" cx="179.7" cy="288.8" r="0.9"/>
<path class="st1" d="M179.7,288.3c0.2,0,0.4,0.2,0.4,0.4s-0.2,0.4-0.4,0.4s-0.4-0.2-0.4-0.4l0,0
	C179.3,288.5,179.5,288.3,179.7,288.3 M179.7,287.3c-0.8,0-1.4,0.6-1.4,1.4s0.6,1.4,1.4,1.4c0.8,0,1.4-0.6,1.4-1.4l0,0
	C181.1,288,180.5,287.3,179.7,287.3z"/>
<circle class="st2" cx="150.4" cy="298.8" r="1.3"/>
<path class="st1" d="M150.4,298c0.5,0,0.8,0.4,0.8,0.8c0,0.5-0.4,0.8-0.8,0.8c-0.5,0-0.8-0.4-0.8-0.8l0,0
	C149.6,298.4,150,298,150.4,298 M150.4,297c-1,0-1.8,0.8-1.8,1.8s0.8,1.8,1.8,1.8s1.8-0.8,1.8-1.8l0,0
	C152.3,297.8,151.5,297,150.4,297z"/>
<circle class="st2" cx="294.9" cy="228.9" r="1.3"/>
<path class="st1" d="M294.9,228.1c0.5,0,0.8,0.4,0.8,0.8s-0.4,0.8-0.8,0.8c-0.5,0-0.8-0.4-0.8-0.8l0,0
	C294.1,228.5,294.5,228.1,294.9,228.1 M294.9,227.1c-1,0-1.8,0.8-1.8,1.8s0.8,1.8,1.8,1.8s1.8-0.8,1.8-1.8l0,0
	C296.8,227.9,295.9,227.1,294.9,227.1z"/>
<path class="st2" d="M163.1,190.5c-0.4,0-0.8-0.2-1.1-0.6c-0.4-0.6-0.3-1.4,0.3-1.9c0.2-0.2,0.5-0.2,0.7-0.2
	c0.7-0.1,1.4,0.5,1.4,1.2c0.1,0.7-0.5,1.4-1.2,1.4C163.2,190.5,163.1,190.5,163.1,190.5L163.1,190.5z"/>
<path class="st1" d="M163.1,188.3L163.1,188.3c0.5,0,0.8,0.4,0.8,0.8c0,0.3-0.1,0.5-0.3,0.7c-0.1,0.1-0.3,0.1-0.5,0.1
	c-0.3,0-0.5-0.1-0.7-0.4c-0.3-0.4-0.2-0.9,0.2-1.2C162.7,188.4,162.9,188.3,163.1,188.3 M163.1,187.3c-1,0-1.8,0.8-1.8,1.8
	s0.8,1.8,1.8,1.8s1.8-0.8,1.8-1.8c0-0.4-0.1-0.7-0.3-1C164.2,187.6,163.7,187.3,163.1,187.3z"/>
<linearGradient id="SVGID_1_" gradientUnits="userSpaceOnUse" x1="289.7" y1="212.22" x2="289.7" y2="177.67" gradientTransform="matrix(1 0 0 1 0 -20)">
	<stop  offset="0" style="stop-color:#E0F4FD"/>
	<stop  offset="0.3" style="stop-color:#DCF3FD"/>
	<stop  offset="0.59" style="stop-color:#D1EFFC"/>
	<stop  offset="0.87" style="stop-color:#BDE8FB"/>
	<stop  offset="1" style="stop-color:#B2E4FB"/>
</linearGradient>
<path class="st3" d="M314.6,182.9v9.7H305l-0.1-0.1l-0.1,0.1h-15.6l-0.1-0.1l-0.1,0.1h-8.4l-0.3-0.3l-0.3,0.3h-6.2l0,0l0,0H268l0,0
	l0,0h-3.3v-9.7c0-13.8,11.2-25,25-25s25,11.2,25,25H314.6z"/>
<g id="_Groupe_">
	<path class="st4" d="M264.5,327.8c-0.8,13-11.6,23.1-24.6,23.1h-0.2C252.7,350.8,263.5,340.8,264.5,327.8z"/>
	<path class="st1" d="M215.2,157.9c-13.8,0-25,11.2-25,25l0,0v133.2h24.7v9.7c0,13.7,11.1,24.9,24.8,24.9c13,0,23.9-10,24.8-23
		c0-0.6,0.1-1.3,0.1-1.9V182.9c0-13.8,11.2-25,25-25l0,0H215.2z"/>
	
		<linearGradient id="SVGID_2_" gradientUnits="userSpaceOnUse" x1="189.95" y1="345.49" x2="189.95" y2="370.73" gradientTransform="matrix(1 0 0 1 0 -20)">
		<stop  offset="0" style="stop-color:#E0F4FD"/>
		<stop  offset="0.3" style="stop-color:#DCF3FD"/>
		<stop  offset="0.59" style="stop-color:#D1EFFC"/>
		<stop  offset="0.87" style="stop-color:#BDE8FB"/>
		<stop  offset="1" style="stop-color:#B2E4FB"/>
	</linearGradient>
	<path class="st5" d="M222.2,343.6c-4.7-4.7-7.3-11-7.3-17.7v-9.7h-28l0,0l0,0h-5.8l0,0l0,0h-40.9v9.7c0,13.8,11.2,25,25,25l0,0
		h74.5C233.1,350.8,226.8,348.2,222.2,343.6z"/>
</g>
<rect x="196.7" y="217.9" class="st6" width="24.2" height="2.6"/>
<rect x="196.7" y="226.3" class="st6" width="16.3" height="2.6"/>
<rect x="196.7" y="234.6" class="st6" width="21.6" height="2.6"/>
<rect x="196.7" y="243" class="st6" width="27.8" height="2.6"/>
<rect x="196.7" y="268" class="st6" width="24.2" height="2.6"/>
<rect x="196.7" y="276.4" class="st6" width="8.5" height="2.6"/>
<rect x="196.7" y="251.3" class="st6" width="44.1" height="2.6"/>
<rect x="196.7" y="259.7" class="st6" width="20.5" height="2.6"/>
<rect x="249.3" y="217.9" class="st6" width="8.5" height="2.6"/>
<rect x="251.7" y="226.3" class="st6" width="6.1" height="2.6"/>
<rect x="249.3" y="234.6" class="st6" width="8.5" height="2.6"/>
<rect x="249.3" y="243" class="st6" width="8.5" height="2.6"/>
<rect x="251.7" y="268" class="st6" width="6.1" height="2.6"/>
<rect x="249.3" y="276.4" class="st6" width="8.5" height="2.6"/>
<rect x="251.7" y="251.3" class="st6" width="6.1" height="2.6"/>
<rect x="249.3" y="259.7" class="st6" width="8.5" height="2.6"/>
<rect x="196.7" y="292.6" class="st6" width="24.2" height="2.6"/>
<rect x="196.7" y="300.9" width="8.5" height="4.2"/>
<rect x="196.7" y="284.2" class="st6" width="20.5" height="2.6"/>
<rect x="251.7" y="292.6" class="st6" width="6.1" height="2.6"/>
<rect x="249.3" y="300.9" width="8.5" height="4.2"/>
<rect x="249.3" y="284.2" class="st6" width="8.5" height="2.6"/>
<rect x="211.9" y="194.9" class="st7" width="32.4" height="3.1"/>
<rect x="218" y="182" class="st7" width="20.2" height="3.1"/>
<rect x="205.7" y="188.5" class="st7" width="44.9" height="3.1"/>
<line class="st8" x1="208.3" y1="206.7" x2="209.6" y2="208"/>
<line class="st8" x1="209.6" y1="206.7" x2="208.3" y2="208"/>
<line class="st8" x1="246.5" y1="206.7" x2="247.8" y2="208"/>
<line class="st8" x1="247.8" y1="206.7" x2="246.5" y2="208"/>
<line class="st8" x1="240.6" y1="206.7" x2="241.9" y2="208"/>
<line class="st8" x1="241.9" y1="206.7" x2="240.6" y2="208"/>
<line class="st8" x1="237.7" y1="206.7" x2="238.9" y2="208"/>
<line class="st8" x1="238.9" y1="206.7" x2="237.7" y2="208"/>
<line class="st8" x1="234.7" y1="206.7" x2="236" y2="208"/>
<line class="st8" x1="236" y1="206.7" x2="234.7" y2="208"/>
<line class="st8" x1="231.8" y1="206.7" x2="233.1" y2="208"/>
<line class="st8" x1="233.1" y1="206.7" x2="231.8" y2="208"/>
<line class="st8" x1="228.9" y1="206.7" x2="230.1" y2="208"/>
<line class="st8" x1="230.1" y1="206.7" x2="228.9" y2="208"/>
<line class="st8" x1="243.5" y1="206.7" x2="244.8" y2="208"/>
<line class="st8" x1="244.8" y1="206.7" x2="243.5" y2="208"/>
<line class="st8" x1="223" y1="206.7" x2="224.3" y2="208"/>
<line class="st8" x1="224.3" y1="206.7" x2="223" y2="208"/>
<line class="st8" x1="220.1" y1="206.7" x2="221.3" y2="208"/>
<line class="st8" x1="221.3" y1="206.7" x2="220.1" y2="208"/>
<line class="st8" x1="214.2" y1="206.7" x2="215.5" y2="208"/>
<line class="st8" x1="215.5" y1="206.7" x2="214.2" y2="208"/>
<line class="st8" x1="211.3" y1="206.7" x2="212.5" y2="208"/>
<line class="st8" x1="212.5" y1="206.7" x2="211.3" y2="208"/>
<line class="st8" x1="217.1" y1="206.7" x2="218.4" y2="208"/>
<line class="st8" x1="218.4" y1="206.7" x2="217.1" y2="208"/>
<line class="st8" x1="225.9" y1="206.7" x2="227.2" y2="208"/>
<line class="st8" x1="227.2" y1="206.7" x2="225.9" y2="208"/>
<ellipse class="st0" cx="205.2" cy="361.1" rx="47.7" ry="4.1"/>
</svg>
