<?xml version="1.0" encoding="utf-8"?>
<!-- Generator: Adobe Illustrator 21.0.0, SVG Export Plug-In . SVG Version: 6.00 Build 0)  -->
<svg version="1.1" id="Objects" xmlns="http://www.w3.org/2000/svg" xmlns:xlink="http://www.w3.org/1999/xlink" x="0px" y="0px"
	 viewBox="0 0 500 500" style="enable-background:new 0 0 500 500;" xml:space="preserve">
<style type="text/css">
	.st0{fill:#FFFFFF;}
</style>
<title>Artboard 2</title>
<g id="Groupe_1" transform="translate(-750 -257)">
	<g id="meal" transform="translate(532.699 166)">
		<path id="Tracé_1" class="st0" d="M518.4,240.6c-0.5,3.9-4.1,6.6-8,6.1c-3.9-0.5-6.6-4.1-6.1-8c0.2-1.3,0.7-2.5,1.5-3.5
			c-30.3-10.7-63.8-8.2-92.1,7.1c5.1,4.2,5.7,11.7,1.7,16.6c-4.2,5.1-11.7,5.7-16.6,1.7c-1.7-1.5-3.1-3.4-3.8-5.6
			c-48.4,40.2-55.1,112.2-15,160.7c13.8,16.7,32.2,29,52.7,35.7c1.2-27.4,2.5-56.7,2.5-56.7s0.5-5.3-2.2-9.5
			c-10.8-2.9-18.9-15.2-18.9-29.9c0-16.9,10.6-30.5,23.7-30.5s23.7,13.7,23.7,30.5c0,15-8.3,27.3-19.2,30c-1.6,2.6-2.2,6.9-1.8,12.4
			c0.3,4.6,1.6,31.5,2.6,56.5c16.7,3.7,34,3.7,50.7-0.3c1.2-26.8,2.2-50.6,2.2-50.6s0.9-9.4-5.2-14.5c-0.4-0.2-0.9-0.4-1.3-0.6
			c-4.8-1.3-12.9-5.7-12.8-18v-1.8c0.2-10.3,2.5-43.9,2.5-43.9h4.4l-0.7,36.5v0.4l0,0c0.1,1.9,1.7,3.4,3.7,3.3
			c1.7-0.1,3.1-1.6,3.3-3.3l0,0c1.1-34.8,1.3-36.9,1.3-36.9h5V360c0,1.7,1.4,3.1,3.1,3.1c1.2,0,2.2-0.6,2.7-1.7
			c0.1-0.1,0.1-0.1,0.1-0.2l0.1-0.2c0.1-0.1,0.1-0.3,0.1-0.4v-0.2c0-0.2,0.1-0.3,0.1-0.5v-0.2l0.7-35.5h4.3l0.9,32.8l0,0v0.1
			c-0.1,1.7,1.4,3.2,3.1,3.3c1.7,0.1,3.2-1.4,3.3-3.1l0,0l0,0v-0.3c-0.4-21.2,0-32.8,0-32.8h3.9c0,0,1.9,21.1,2.9,35.9v0.1
			c0.1,1.1,0.1,2,0.2,3c0.1,1.9,0.2,3.6,0.3,5v1.8c0.2,12.2-8.1,16.6-12.8,18c-0.5,0.1-0.9,0.3-1.3,0.6c-6,5.1-5.2,14.5-5.2,14.5
			s0.6,12.6,1.3,29.8l0,0c0.3,5.4,0.6,11.5,0.8,17.8c59.6-20.1,91.8-84.8,71.7-144.5C566.2,277.7,545.5,254.1,518.4,240.6z
			 M385.9,315.8c-6.5,0-11.9-5.3-11.9-11.9s5.3-11.9,11.9-11.9c6.5,0,11.9,5.3,11.9,11.9l0,0l0,0
			C397.8,310.5,392.5,315.8,385.9,315.8L385.9,315.8z M454,254.3c1.9,0,3.5,1.6,3.5,3.5c0,1.9-1.6,3.5-3.5,3.5s-3.5-1.6-3.5-3.5l0,0
			l0,0C450.4,255.9,452.1,254.3,454,254.3L454,254.3z M454,320.7c-2.6,0-4.8-2.1-4.8-4.8s2.1-4.8,4.8-4.8c2.6,0,4.8,2.1,4.8,4.8l0,0
			C458.8,318.5,456.6,320.7,454,320.7L454,320.7z M490.2,300.2c-4.5,0-8.1-3.6-8.1-8.1s3.6-8.1,8.1-8.1c4.5,0,8.1,3.6,8.1,8.1l0,0
			l0,0C498.2,296.6,494.6,300.2,490.2,300.2z M541.1,300.2c-5.1,0-9.3-4.2-9.3-9.3s4.2-9.3,9.3-9.3c5.1,0,9.3,4.2,9.3,9.3
			C550.5,296,546.3,300.2,541.1,300.2L541.1,300.2z"/>
	</g>
</g>
</svg>
